G04 #@! TF.GenerationSoftware,KiCad,Pcbnew,5.1.10-1.fc33*
G04 #@! TF.CreationDate,2021-10-10T14:47:09-05:00*
G04 #@! TF.ProjectId,lvds_pmod,6c766473-5f70-46d6-9f64-2e6b69636164,A*
G04 #@! TF.SameCoordinates,Original*
G04 #@! TF.FileFunction,Soldermask,Bot*
G04 #@! TF.FilePolarity,Negative*
%FSLAX46Y46*%
G04 Gerber Fmt 4.6, Leading zero omitted, Abs format (unit mm)*
G04 Created by KiCad (PCBNEW 5.1.10-1.fc33) date 2021-10-10 14:47:09*
%MOMM*%
%LPD*%
G01*
G04 APERTURE LIST*
%ADD10C,0.010000*%
%ADD11C,2.250000*%
%ADD12C,2.050000*%
%ADD13O,1.700000X1.700000*%
%ADD14R,1.700000X1.700000*%
G04 APERTURE END LIST*
D10*
G36*
X151378129Y-92328133D02*
G01*
X151179701Y-92328377D01*
X151016328Y-92328956D01*
X150884369Y-92330011D01*
X150780184Y-92331683D01*
X150700135Y-92334114D01*
X150640580Y-92337444D01*
X150597881Y-92341816D01*
X150568399Y-92347369D01*
X150548492Y-92354246D01*
X150534522Y-92362588D01*
X150525222Y-92370367D01*
X150500931Y-92392328D01*
X150480275Y-92413065D01*
X150462940Y-92436017D01*
X150448612Y-92464628D01*
X150436977Y-92502339D01*
X150427723Y-92552591D01*
X150420536Y-92618828D01*
X150415103Y-92704489D01*
X150411109Y-92813019D01*
X150408242Y-92947857D01*
X150406187Y-93112446D01*
X150404633Y-93310228D01*
X150403264Y-93544645D01*
X150402317Y-93719792D01*
X150395884Y-94899834D01*
X150842666Y-94899834D01*
X150842666Y-92846667D01*
X151393000Y-92846667D01*
X151393000Y-94899834D01*
X151837500Y-94899834D01*
X151837500Y-92846667D01*
X152387833Y-92846667D01*
X152387833Y-94899834D01*
X152811166Y-94899834D01*
X152811166Y-93713449D01*
X152811152Y-93452762D01*
X152810929Y-93230987D01*
X152810229Y-93044705D01*
X152808780Y-92890495D01*
X152806314Y-92764937D01*
X152802561Y-92664611D01*
X152797251Y-92586096D01*
X152790115Y-92525971D01*
X152780883Y-92480817D01*
X152769285Y-92447213D01*
X152755052Y-92421738D01*
X152737913Y-92400973D01*
X152717600Y-92381497D01*
X152705278Y-92370367D01*
X152693431Y-92360759D01*
X152678545Y-92352728D01*
X152656979Y-92346133D01*
X152625094Y-92340832D01*
X152579250Y-92336684D01*
X152515808Y-92333549D01*
X152431128Y-92331284D01*
X152321569Y-92329750D01*
X152183493Y-92328803D01*
X152013260Y-92328305D01*
X151807230Y-92328112D01*
X151615250Y-92328084D01*
X151378129Y-92328133D01*
G37*
X151378129Y-92328133D02*
X151179701Y-92328377D01*
X151016328Y-92328956D01*
X150884369Y-92330011D01*
X150780184Y-92331683D01*
X150700135Y-92334114D01*
X150640580Y-92337444D01*
X150597881Y-92341816D01*
X150568399Y-92347369D01*
X150548492Y-92354246D01*
X150534522Y-92362588D01*
X150525222Y-92370367D01*
X150500931Y-92392328D01*
X150480275Y-92413065D01*
X150462940Y-92436017D01*
X150448612Y-92464628D01*
X150436977Y-92502339D01*
X150427723Y-92552591D01*
X150420536Y-92618828D01*
X150415103Y-92704489D01*
X150411109Y-92813019D01*
X150408242Y-92947857D01*
X150406187Y-93112446D01*
X150404633Y-93310228D01*
X150403264Y-93544645D01*
X150402317Y-93719792D01*
X150395884Y-94899834D01*
X150842666Y-94899834D01*
X150842666Y-92846667D01*
X151393000Y-92846667D01*
X151393000Y-94899834D01*
X151837500Y-94899834D01*
X151837500Y-92846667D01*
X152387833Y-92846667D01*
X152387833Y-94899834D01*
X152811166Y-94899834D01*
X152811166Y-93713449D01*
X152811152Y-93452762D01*
X152810929Y-93230987D01*
X152810229Y-93044705D01*
X152808780Y-92890495D01*
X152806314Y-92764937D01*
X152802561Y-92664611D01*
X152797251Y-92586096D01*
X152790115Y-92525971D01*
X152780883Y-92480817D01*
X152769285Y-92447213D01*
X152755052Y-92421738D01*
X152737913Y-92400973D01*
X152717600Y-92381497D01*
X152705278Y-92370367D01*
X152693431Y-92360759D01*
X152678545Y-92352728D01*
X152656979Y-92346133D01*
X152625094Y-92340832D01*
X152579250Y-92336684D01*
X152515808Y-92333549D01*
X152431128Y-92331284D01*
X152321569Y-92329750D01*
X152183493Y-92328803D01*
X152013260Y-92328305D01*
X151807230Y-92328112D01*
X151615250Y-92328084D01*
X151378129Y-92328133D01*
D11*
X173960000Y-99040000D03*
X173960000Y-93960000D03*
X179040000Y-93960000D03*
X179040000Y-99040000D03*
D12*
X176500000Y-96500000D03*
D11*
X173960000Y-89540000D03*
X173960000Y-84460000D03*
X179040000Y-84460000D03*
X179040000Y-89540000D03*
D12*
X176500000Y-87000000D03*
D13*
X128660000Y-98005000D03*
X131200000Y-98005000D03*
X128660000Y-95465000D03*
X131200000Y-95465000D03*
X128660000Y-92925000D03*
X131200000Y-92925000D03*
X128660000Y-90385000D03*
X131200000Y-90385000D03*
X128660000Y-87845000D03*
X131200000Y-87845000D03*
X128660000Y-85305000D03*
D14*
X131200000Y-85305000D03*
M02*
