G04 #@! TF.GenerationSoftware,KiCad,Pcbnew,5.1.10-1.fc33*
G04 #@! TF.CreationDate,2021-10-10T14:47:09-05:00*
G04 #@! TF.ProjectId,lvds_pmod,6c766473-5f70-46d6-9f64-2e6b69636164,A*
G04 #@! TF.SameCoordinates,Original*
G04 #@! TF.FileFunction,Soldermask,Top*
G04 #@! TF.FilePolarity,Negative*
%FSLAX46Y46*%
G04 Gerber Fmt 4.6, Leading zero omitted, Abs format (unit mm)*
G04 Created by KiCad (PCBNEW 5.1.10-1.fc33) date 2021-10-10 14:47:09*
%MOMM*%
%LPD*%
G01*
G04 APERTURE LIST*
%ADD10C,0.150000*%
%ADD11R,1.650000X0.760000*%
%ADD12C,2.250000*%
%ADD13C,2.050000*%
%ADD14O,1.700000X1.700000*%
%ADD15R,1.700000X1.700000*%
G04 APERTURE END LIST*
D10*
X148023809Y-98559523D02*
X147785714Y-98273809D01*
X147595238Y-98559523D02*
X147595238Y-97892857D01*
X147880952Y-97892857D01*
X147976190Y-97940476D01*
X148023809Y-98035714D01*
X148023809Y-98130952D01*
X147976190Y-98226190D01*
X147880952Y-98273809D01*
X147595238Y-98273809D01*
X147785714Y-97559523D02*
X147547619Y-97607142D01*
X147309523Y-97750000D01*
X147166666Y-97988095D01*
X147119047Y-98226190D01*
X147166666Y-98464285D01*
X147309523Y-98702380D01*
X147547619Y-98845238D01*
X147785714Y-98892857D01*
X148023809Y-98845238D01*
X148261904Y-98702380D01*
X148404761Y-98464285D01*
X148452380Y-98226190D01*
X148404761Y-97988095D01*
X148261904Y-97750000D01*
X148023809Y-97607142D01*
X147785714Y-97559523D01*
X149690476Y-97940476D02*
X149595238Y-97892857D01*
X149404761Y-97892857D01*
X149309523Y-97940476D01*
X149214285Y-98035714D01*
X149166666Y-98130952D01*
X149166666Y-98321428D01*
X149214285Y-98416666D01*
X149309523Y-98511904D01*
X149404761Y-98559523D01*
X149595238Y-98559523D01*
X149690476Y-98511904D01*
X149500000Y-97559523D02*
X149261904Y-97607142D01*
X149023809Y-97750000D01*
X148880952Y-97988095D01*
X148833333Y-98226190D01*
X148880952Y-98464285D01*
X149023809Y-98702380D01*
X149261904Y-98845238D01*
X149500000Y-98892857D01*
X149738095Y-98845238D01*
X149976190Y-98702380D01*
X150119047Y-98464285D01*
X150166666Y-98226190D01*
X150119047Y-97988095D01*
X149976190Y-97750000D01*
X149738095Y-97607142D01*
X149500000Y-97559523D01*
X151452380Y-98559523D02*
X151214285Y-98273809D01*
X151023809Y-98559523D02*
X151023809Y-97892857D01*
X151309523Y-97892857D01*
X151404761Y-97940476D01*
X151452380Y-98035714D01*
X151452380Y-98130952D01*
X151404761Y-98226190D01*
X151309523Y-98273809D01*
X151023809Y-98273809D01*
X151214285Y-97559523D02*
X150976190Y-97607142D01*
X150738095Y-97750000D01*
X150595238Y-97988095D01*
X150547619Y-98226190D01*
X150595238Y-98464285D01*
X150738095Y-98702380D01*
X150976190Y-98845238D01*
X151214285Y-98892857D01*
X151452380Y-98845238D01*
X151690476Y-98702380D01*
X151833333Y-98464285D01*
X151880952Y-98226190D01*
X151833333Y-97988095D01*
X151690476Y-97750000D01*
X151452380Y-97607142D01*
X151214285Y-97559523D01*
G36*
G01*
X166512500Y-95850000D02*
X166987500Y-95850000D01*
G75*
G02*
X167225000Y-96087500I0J-237500D01*
G01*
X167225000Y-96662500D01*
G75*
G02*
X166987500Y-96900000I-237500J0D01*
G01*
X166512500Y-96900000D01*
G75*
G02*
X166275000Y-96662500I0J237500D01*
G01*
X166275000Y-96087500D01*
G75*
G02*
X166512500Y-95850000I237500J0D01*
G01*
G37*
G36*
G01*
X166512500Y-94100000D02*
X166987500Y-94100000D01*
G75*
G02*
X167225000Y-94337500I0J-237500D01*
G01*
X167225000Y-94912500D01*
G75*
G02*
X166987500Y-95150000I-237500J0D01*
G01*
X166512500Y-95150000D01*
G75*
G02*
X166275000Y-94912500I0J237500D01*
G01*
X166275000Y-94337500D01*
G75*
G02*
X166512500Y-94100000I237500J0D01*
G01*
G37*
G36*
G01*
X166512500Y-88350000D02*
X166987500Y-88350000D01*
G75*
G02*
X167225000Y-88587500I0J-237500D01*
G01*
X167225000Y-89162500D01*
G75*
G02*
X166987500Y-89400000I-237500J0D01*
G01*
X166512500Y-89400000D01*
G75*
G02*
X166275000Y-89162500I0J237500D01*
G01*
X166275000Y-88587500D01*
G75*
G02*
X166512500Y-88350000I237500J0D01*
G01*
G37*
G36*
G01*
X166512500Y-86600000D02*
X166987500Y-86600000D01*
G75*
G02*
X167225000Y-86837500I0J-237500D01*
G01*
X167225000Y-87412500D01*
G75*
G02*
X166987500Y-87650000I-237500J0D01*
G01*
X166512500Y-87650000D01*
G75*
G02*
X166275000Y-87412500I0J237500D01*
G01*
X166275000Y-86837500D01*
G75*
G02*
X166512500Y-86600000I237500J0D01*
G01*
G37*
G36*
G01*
X163012500Y-95850000D02*
X163487500Y-95850000D01*
G75*
G02*
X163725000Y-96087500I0J-237500D01*
G01*
X163725000Y-96662500D01*
G75*
G02*
X163487500Y-96900000I-237500J0D01*
G01*
X163012500Y-96900000D01*
G75*
G02*
X162775000Y-96662500I0J237500D01*
G01*
X162775000Y-96087500D01*
G75*
G02*
X163012500Y-95850000I237500J0D01*
G01*
G37*
G36*
G01*
X163012500Y-94100000D02*
X163487500Y-94100000D01*
G75*
G02*
X163725000Y-94337500I0J-237500D01*
G01*
X163725000Y-94912500D01*
G75*
G02*
X163487500Y-95150000I-237500J0D01*
G01*
X163012500Y-95150000D01*
G75*
G02*
X162775000Y-94912500I0J237500D01*
G01*
X162775000Y-94337500D01*
G75*
G02*
X163012500Y-94100000I237500J0D01*
G01*
G37*
G36*
G01*
X163012500Y-88350000D02*
X163487500Y-88350000D01*
G75*
G02*
X163725000Y-88587500I0J-237500D01*
G01*
X163725000Y-89162500D01*
G75*
G02*
X163487500Y-89400000I-237500J0D01*
G01*
X163012500Y-89400000D01*
G75*
G02*
X162775000Y-89162500I0J237500D01*
G01*
X162775000Y-88587500D01*
G75*
G02*
X163012500Y-88350000I237500J0D01*
G01*
G37*
G36*
G01*
X163012500Y-86600000D02*
X163487500Y-86600000D01*
G75*
G02*
X163725000Y-86837500I0J-237500D01*
G01*
X163725000Y-87412500D01*
G75*
G02*
X163487500Y-87650000I-237500J0D01*
G01*
X163012500Y-87650000D01*
G75*
G02*
X162775000Y-87412500I0J237500D01*
G01*
X162775000Y-86837500D01*
G75*
G02*
X163012500Y-86600000I237500J0D01*
G01*
G37*
G36*
G01*
X159512500Y-95850000D02*
X159987500Y-95850000D01*
G75*
G02*
X160225000Y-96087500I0J-237500D01*
G01*
X160225000Y-96662500D01*
G75*
G02*
X159987500Y-96900000I-237500J0D01*
G01*
X159512500Y-96900000D01*
G75*
G02*
X159275000Y-96662500I0J237500D01*
G01*
X159275000Y-96087500D01*
G75*
G02*
X159512500Y-95850000I237500J0D01*
G01*
G37*
G36*
G01*
X159512500Y-94100000D02*
X159987500Y-94100000D01*
G75*
G02*
X160225000Y-94337500I0J-237500D01*
G01*
X160225000Y-94912500D01*
G75*
G02*
X159987500Y-95150000I-237500J0D01*
G01*
X159512500Y-95150000D01*
G75*
G02*
X159275000Y-94912500I0J237500D01*
G01*
X159275000Y-94337500D01*
G75*
G02*
X159512500Y-94100000I237500J0D01*
G01*
G37*
G36*
G01*
X159512500Y-88350000D02*
X159987500Y-88350000D01*
G75*
G02*
X160225000Y-88587500I0J-237500D01*
G01*
X160225000Y-89162500D01*
G75*
G02*
X159987500Y-89400000I-237500J0D01*
G01*
X159512500Y-89400000D01*
G75*
G02*
X159275000Y-89162500I0J237500D01*
G01*
X159275000Y-88587500D01*
G75*
G02*
X159512500Y-88350000I237500J0D01*
G01*
G37*
G36*
G01*
X159512500Y-86600000D02*
X159987500Y-86600000D01*
G75*
G02*
X160225000Y-86837500I0J-237500D01*
G01*
X160225000Y-87412500D01*
G75*
G02*
X159987500Y-87650000I-237500J0D01*
G01*
X159512500Y-87650000D01*
G75*
G02*
X159275000Y-87412500I0J237500D01*
G01*
X159275000Y-86837500D01*
G75*
G02*
X159512500Y-86600000I237500J0D01*
G01*
G37*
G36*
G01*
X156012500Y-95850000D02*
X156487500Y-95850000D01*
G75*
G02*
X156725000Y-96087500I0J-237500D01*
G01*
X156725000Y-96662500D01*
G75*
G02*
X156487500Y-96900000I-237500J0D01*
G01*
X156012500Y-96900000D01*
G75*
G02*
X155775000Y-96662500I0J237500D01*
G01*
X155775000Y-96087500D01*
G75*
G02*
X156012500Y-95850000I237500J0D01*
G01*
G37*
G36*
G01*
X156012500Y-94100000D02*
X156487500Y-94100000D01*
G75*
G02*
X156725000Y-94337500I0J-237500D01*
G01*
X156725000Y-94912500D01*
G75*
G02*
X156487500Y-95150000I-237500J0D01*
G01*
X156012500Y-95150000D01*
G75*
G02*
X155775000Y-94912500I0J237500D01*
G01*
X155775000Y-94337500D01*
G75*
G02*
X156012500Y-94100000I237500J0D01*
G01*
G37*
G36*
G01*
X156012500Y-88350000D02*
X156487500Y-88350000D01*
G75*
G02*
X156725000Y-88587500I0J-237500D01*
G01*
X156725000Y-89162500D01*
G75*
G02*
X156487500Y-89400000I-237500J0D01*
G01*
X156012500Y-89400000D01*
G75*
G02*
X155775000Y-89162500I0J237500D01*
G01*
X155775000Y-88587500D01*
G75*
G02*
X156012500Y-88350000I237500J0D01*
G01*
G37*
G36*
G01*
X156012500Y-86600000D02*
X156487500Y-86600000D01*
G75*
G02*
X156725000Y-86837500I0J-237500D01*
G01*
X156725000Y-87412500D01*
G75*
G02*
X156487500Y-87650000I-237500J0D01*
G01*
X156012500Y-87650000D01*
G75*
G02*
X155775000Y-87412500I0J237500D01*
G01*
X155775000Y-86837500D01*
G75*
G02*
X156012500Y-86600000I237500J0D01*
G01*
G37*
G36*
G01*
X168262500Y-95825000D02*
X168737500Y-95825000D01*
G75*
G02*
X168975000Y-96062500I0J-237500D01*
G01*
X168975000Y-96662500D01*
G75*
G02*
X168737500Y-96900000I-237500J0D01*
G01*
X168262500Y-96900000D01*
G75*
G02*
X168025000Y-96662500I0J237500D01*
G01*
X168025000Y-96062500D01*
G75*
G02*
X168262500Y-95825000I237500J0D01*
G01*
G37*
G36*
G01*
X168262500Y-94100000D02*
X168737500Y-94100000D01*
G75*
G02*
X168975000Y-94337500I0J-237500D01*
G01*
X168975000Y-94937500D01*
G75*
G02*
X168737500Y-95175000I-237500J0D01*
G01*
X168262500Y-95175000D01*
G75*
G02*
X168025000Y-94937500I0J237500D01*
G01*
X168025000Y-94337500D01*
G75*
G02*
X168262500Y-94100000I237500J0D01*
G01*
G37*
G36*
G01*
X168262500Y-88325000D02*
X168737500Y-88325000D01*
G75*
G02*
X168975000Y-88562500I0J-237500D01*
G01*
X168975000Y-89162500D01*
G75*
G02*
X168737500Y-89400000I-237500J0D01*
G01*
X168262500Y-89400000D01*
G75*
G02*
X168025000Y-89162500I0J237500D01*
G01*
X168025000Y-88562500D01*
G75*
G02*
X168262500Y-88325000I237500J0D01*
G01*
G37*
G36*
G01*
X168262500Y-86600000D02*
X168737500Y-86600000D01*
G75*
G02*
X168975000Y-86837500I0J-237500D01*
G01*
X168975000Y-87437500D01*
G75*
G02*
X168737500Y-87675000I-237500J0D01*
G01*
X168262500Y-87675000D01*
G75*
G02*
X168025000Y-87437500I0J237500D01*
G01*
X168025000Y-86837500D01*
G75*
G02*
X168262500Y-86600000I237500J0D01*
G01*
G37*
G36*
G01*
X164762500Y-95825000D02*
X165237500Y-95825000D01*
G75*
G02*
X165475000Y-96062500I0J-237500D01*
G01*
X165475000Y-96662500D01*
G75*
G02*
X165237500Y-96900000I-237500J0D01*
G01*
X164762500Y-96900000D01*
G75*
G02*
X164525000Y-96662500I0J237500D01*
G01*
X164525000Y-96062500D01*
G75*
G02*
X164762500Y-95825000I237500J0D01*
G01*
G37*
G36*
G01*
X164762500Y-94100000D02*
X165237500Y-94100000D01*
G75*
G02*
X165475000Y-94337500I0J-237500D01*
G01*
X165475000Y-94937500D01*
G75*
G02*
X165237500Y-95175000I-237500J0D01*
G01*
X164762500Y-95175000D01*
G75*
G02*
X164525000Y-94937500I0J237500D01*
G01*
X164525000Y-94337500D01*
G75*
G02*
X164762500Y-94100000I237500J0D01*
G01*
G37*
G36*
G01*
X164762500Y-88325000D02*
X165237500Y-88325000D01*
G75*
G02*
X165475000Y-88562500I0J-237500D01*
G01*
X165475000Y-89162500D01*
G75*
G02*
X165237500Y-89400000I-237500J0D01*
G01*
X164762500Y-89400000D01*
G75*
G02*
X164525000Y-89162500I0J237500D01*
G01*
X164525000Y-88562500D01*
G75*
G02*
X164762500Y-88325000I237500J0D01*
G01*
G37*
G36*
G01*
X164762500Y-86600000D02*
X165237500Y-86600000D01*
G75*
G02*
X165475000Y-86837500I0J-237500D01*
G01*
X165475000Y-87437500D01*
G75*
G02*
X165237500Y-87675000I-237500J0D01*
G01*
X164762500Y-87675000D01*
G75*
G02*
X164525000Y-87437500I0J237500D01*
G01*
X164525000Y-86837500D01*
G75*
G02*
X164762500Y-86600000I237500J0D01*
G01*
G37*
G36*
G01*
X161262500Y-95825000D02*
X161737500Y-95825000D01*
G75*
G02*
X161975000Y-96062500I0J-237500D01*
G01*
X161975000Y-96662500D01*
G75*
G02*
X161737500Y-96900000I-237500J0D01*
G01*
X161262500Y-96900000D01*
G75*
G02*
X161025000Y-96662500I0J237500D01*
G01*
X161025000Y-96062500D01*
G75*
G02*
X161262500Y-95825000I237500J0D01*
G01*
G37*
G36*
G01*
X161262500Y-94100000D02*
X161737500Y-94100000D01*
G75*
G02*
X161975000Y-94337500I0J-237500D01*
G01*
X161975000Y-94937500D01*
G75*
G02*
X161737500Y-95175000I-237500J0D01*
G01*
X161262500Y-95175000D01*
G75*
G02*
X161025000Y-94937500I0J237500D01*
G01*
X161025000Y-94337500D01*
G75*
G02*
X161262500Y-94100000I237500J0D01*
G01*
G37*
G36*
G01*
X161262500Y-88325000D02*
X161737500Y-88325000D01*
G75*
G02*
X161975000Y-88562500I0J-237500D01*
G01*
X161975000Y-89162500D01*
G75*
G02*
X161737500Y-89400000I-237500J0D01*
G01*
X161262500Y-89400000D01*
G75*
G02*
X161025000Y-89162500I0J237500D01*
G01*
X161025000Y-88562500D01*
G75*
G02*
X161262500Y-88325000I237500J0D01*
G01*
G37*
G36*
G01*
X161262500Y-86600000D02*
X161737500Y-86600000D01*
G75*
G02*
X161975000Y-86837500I0J-237500D01*
G01*
X161975000Y-87437500D01*
G75*
G02*
X161737500Y-87675000I-237500J0D01*
G01*
X161262500Y-87675000D01*
G75*
G02*
X161025000Y-87437500I0J237500D01*
G01*
X161025000Y-86837500D01*
G75*
G02*
X161262500Y-86600000I237500J0D01*
G01*
G37*
G36*
G01*
X157762500Y-95825000D02*
X158237500Y-95825000D01*
G75*
G02*
X158475000Y-96062500I0J-237500D01*
G01*
X158475000Y-96662500D01*
G75*
G02*
X158237500Y-96900000I-237500J0D01*
G01*
X157762500Y-96900000D01*
G75*
G02*
X157525000Y-96662500I0J237500D01*
G01*
X157525000Y-96062500D01*
G75*
G02*
X157762500Y-95825000I237500J0D01*
G01*
G37*
G36*
G01*
X157762500Y-94100000D02*
X158237500Y-94100000D01*
G75*
G02*
X158475000Y-94337500I0J-237500D01*
G01*
X158475000Y-94937500D01*
G75*
G02*
X158237500Y-95175000I-237500J0D01*
G01*
X157762500Y-95175000D01*
G75*
G02*
X157525000Y-94937500I0J237500D01*
G01*
X157525000Y-94337500D01*
G75*
G02*
X157762500Y-94100000I237500J0D01*
G01*
G37*
G36*
G01*
X157762500Y-88325000D02*
X158237500Y-88325000D01*
G75*
G02*
X158475000Y-88562500I0J-237500D01*
G01*
X158475000Y-89162500D01*
G75*
G02*
X158237500Y-89400000I-237500J0D01*
G01*
X157762500Y-89400000D01*
G75*
G02*
X157525000Y-89162500I0J237500D01*
G01*
X157525000Y-88562500D01*
G75*
G02*
X157762500Y-88325000I237500J0D01*
G01*
G37*
G36*
G01*
X157762500Y-86600000D02*
X158237500Y-86600000D01*
G75*
G02*
X158475000Y-86837500I0J-237500D01*
G01*
X158475000Y-87437500D01*
G75*
G02*
X158237500Y-87675000I-237500J0D01*
G01*
X157762500Y-87675000D01*
G75*
G02*
X157525000Y-87437500I0J237500D01*
G01*
X157525000Y-86837500D01*
G75*
G02*
X157762500Y-86600000I237500J0D01*
G01*
G37*
G36*
G01*
X154075000Y-94750000D02*
X154075000Y-94250000D01*
G75*
G02*
X154300000Y-94025000I225000J0D01*
G01*
X154750000Y-94025000D01*
G75*
G02*
X154975000Y-94250000I0J-225000D01*
G01*
X154975000Y-94750000D01*
G75*
G02*
X154750000Y-94975000I-225000J0D01*
G01*
X154300000Y-94975000D01*
G75*
G02*
X154075000Y-94750000I0J225000D01*
G01*
G37*
G36*
G01*
X152525000Y-94750000D02*
X152525000Y-94250000D01*
G75*
G02*
X152750000Y-94025000I225000J0D01*
G01*
X153200000Y-94025000D01*
G75*
G02*
X153425000Y-94250000I0J-225000D01*
G01*
X153425000Y-94750000D01*
G75*
G02*
X153200000Y-94975000I-225000J0D01*
G01*
X152750000Y-94975000D01*
G75*
G02*
X152525000Y-94750000I0J225000D01*
G01*
G37*
G36*
G01*
X154075000Y-87250000D02*
X154075000Y-86750000D01*
G75*
G02*
X154300000Y-86525000I225000J0D01*
G01*
X154750000Y-86525000D01*
G75*
G02*
X154975000Y-86750000I0J-225000D01*
G01*
X154975000Y-87250000D01*
G75*
G02*
X154750000Y-87475000I-225000J0D01*
G01*
X154300000Y-87475000D01*
G75*
G02*
X154075000Y-87250000I0J225000D01*
G01*
G37*
G36*
G01*
X152525000Y-87250000D02*
X152525000Y-86750000D01*
G75*
G02*
X152750000Y-86525000I225000J0D01*
G01*
X153200000Y-86525000D01*
G75*
G02*
X153425000Y-86750000I0J-225000D01*
G01*
X153425000Y-87250000D01*
G75*
G02*
X153200000Y-87475000I-225000J0D01*
G01*
X152750000Y-87475000D01*
G75*
G02*
X152525000Y-87250000I0J225000D01*
G01*
G37*
D11*
X150840000Y-93730000D03*
X150840000Y-96270000D03*
X147660000Y-96270000D03*
X147660000Y-95000000D03*
X147660000Y-93730000D03*
X150840000Y-87730000D03*
X150840000Y-90270000D03*
X147660000Y-90270000D03*
X147660000Y-89000000D03*
X147660000Y-87730000D03*
G36*
G01*
X138262500Y-95425000D02*
X138737500Y-95425000D01*
G75*
G02*
X138975000Y-95662500I0J-237500D01*
G01*
X138975000Y-96162500D01*
G75*
G02*
X138737500Y-96400000I-237500J0D01*
G01*
X138262500Y-96400000D01*
G75*
G02*
X138025000Y-96162500I0J237500D01*
G01*
X138025000Y-95662500D01*
G75*
G02*
X138262500Y-95425000I237500J0D01*
G01*
G37*
G36*
G01*
X138262500Y-93600000D02*
X138737500Y-93600000D01*
G75*
G02*
X138975000Y-93837500I0J-237500D01*
G01*
X138975000Y-94337500D01*
G75*
G02*
X138737500Y-94575000I-237500J0D01*
G01*
X138262500Y-94575000D01*
G75*
G02*
X138025000Y-94337500I0J237500D01*
G01*
X138025000Y-93837500D01*
G75*
G02*
X138262500Y-93600000I237500J0D01*
G01*
G37*
G36*
G01*
X141487500Y-94575000D02*
X141012500Y-94575000D01*
G75*
G02*
X140775000Y-94337500I0J237500D01*
G01*
X140775000Y-93837500D01*
G75*
G02*
X141012500Y-93600000I237500J0D01*
G01*
X141487500Y-93600000D01*
G75*
G02*
X141725000Y-93837500I0J-237500D01*
G01*
X141725000Y-94337500D01*
G75*
G02*
X141487500Y-94575000I-237500J0D01*
G01*
G37*
G36*
G01*
X141487500Y-96400000D02*
X141012500Y-96400000D01*
G75*
G02*
X140775000Y-96162500I0J237500D01*
G01*
X140775000Y-95662500D01*
G75*
G02*
X141012500Y-95425000I237500J0D01*
G01*
X141487500Y-95425000D01*
G75*
G02*
X141725000Y-95662500I0J-237500D01*
G01*
X141725000Y-96162500D01*
G75*
G02*
X141487500Y-96400000I-237500J0D01*
G01*
G37*
G36*
G01*
X138262500Y-89425000D02*
X138737500Y-89425000D01*
G75*
G02*
X138975000Y-89662500I0J-237500D01*
G01*
X138975000Y-90162500D01*
G75*
G02*
X138737500Y-90400000I-237500J0D01*
G01*
X138262500Y-90400000D01*
G75*
G02*
X138025000Y-90162500I0J237500D01*
G01*
X138025000Y-89662500D01*
G75*
G02*
X138262500Y-89425000I237500J0D01*
G01*
G37*
G36*
G01*
X138262500Y-87600000D02*
X138737500Y-87600000D01*
G75*
G02*
X138975000Y-87837500I0J-237500D01*
G01*
X138975000Y-88337500D01*
G75*
G02*
X138737500Y-88575000I-237500J0D01*
G01*
X138262500Y-88575000D01*
G75*
G02*
X138025000Y-88337500I0J237500D01*
G01*
X138025000Y-87837500D01*
G75*
G02*
X138262500Y-87600000I237500J0D01*
G01*
G37*
G36*
G01*
X141487500Y-88575000D02*
X141012500Y-88575000D01*
G75*
G02*
X140775000Y-88337500I0J237500D01*
G01*
X140775000Y-87837500D01*
G75*
G02*
X141012500Y-87600000I237500J0D01*
G01*
X141487500Y-87600000D01*
G75*
G02*
X141725000Y-87837500I0J-237500D01*
G01*
X141725000Y-88337500D01*
G75*
G02*
X141487500Y-88575000I-237500J0D01*
G01*
G37*
G36*
G01*
X141487500Y-90400000D02*
X141012500Y-90400000D01*
G75*
G02*
X140775000Y-90162500I0J237500D01*
G01*
X140775000Y-89662500D01*
G75*
G02*
X141012500Y-89425000I237500J0D01*
G01*
X141487500Y-89425000D01*
G75*
G02*
X141725000Y-89662500I0J-237500D01*
G01*
X141725000Y-90162500D01*
G75*
G02*
X141487500Y-90400000I-237500J0D01*
G01*
G37*
D12*
X173960000Y-99040000D03*
X173960000Y-93960000D03*
X179040000Y-93960000D03*
X179040000Y-99040000D03*
D13*
X176500000Y-96500000D03*
D12*
X173960000Y-89540000D03*
X173960000Y-84460000D03*
X179040000Y-84460000D03*
X179040000Y-89540000D03*
D13*
X176500000Y-87000000D03*
G36*
G01*
X143262500Y-95325000D02*
X143737500Y-95325000D01*
G75*
G02*
X143975000Y-95562500I0J-237500D01*
G01*
X143975000Y-96162500D01*
G75*
G02*
X143737500Y-96400000I-237500J0D01*
G01*
X143262500Y-96400000D01*
G75*
G02*
X143025000Y-96162500I0J237500D01*
G01*
X143025000Y-95562500D01*
G75*
G02*
X143262500Y-95325000I237500J0D01*
G01*
G37*
G36*
G01*
X143262500Y-93600000D02*
X143737500Y-93600000D01*
G75*
G02*
X143975000Y-93837500I0J-237500D01*
G01*
X143975000Y-94437500D01*
G75*
G02*
X143737500Y-94675000I-237500J0D01*
G01*
X143262500Y-94675000D01*
G75*
G02*
X143025000Y-94437500I0J237500D01*
G01*
X143025000Y-93837500D01*
G75*
G02*
X143262500Y-93600000I237500J0D01*
G01*
G37*
G36*
G01*
X143262500Y-89325000D02*
X143737500Y-89325000D01*
G75*
G02*
X143975000Y-89562500I0J-237500D01*
G01*
X143975000Y-90162500D01*
G75*
G02*
X143737500Y-90400000I-237500J0D01*
G01*
X143262500Y-90400000D01*
G75*
G02*
X143025000Y-90162500I0J237500D01*
G01*
X143025000Y-89562500D01*
G75*
G02*
X143262500Y-89325000I237500J0D01*
G01*
G37*
G36*
G01*
X143262500Y-87600000D02*
X143737500Y-87600000D01*
G75*
G02*
X143975000Y-87837500I0J-237500D01*
G01*
X143975000Y-88437500D01*
G75*
G02*
X143737500Y-88675000I-237500J0D01*
G01*
X143262500Y-88675000D01*
G75*
G02*
X143025000Y-88437500I0J237500D01*
G01*
X143025000Y-87837500D01*
G75*
G02*
X143262500Y-87600000I237500J0D01*
G01*
G37*
G36*
G01*
X136150000Y-99175001D02*
X136150000Y-98324999D01*
G75*
G02*
X136399999Y-98075000I249999J0D01*
G01*
X137475001Y-98075000D01*
G75*
G02*
X137725000Y-98324999I0J-249999D01*
G01*
X137725000Y-99175001D01*
G75*
G02*
X137475001Y-99425000I-249999J0D01*
G01*
X136399999Y-99425000D01*
G75*
G02*
X136150000Y-99175001I0J249999D01*
G01*
G37*
G36*
G01*
X133275000Y-99175001D02*
X133275000Y-98324999D01*
G75*
G02*
X133524999Y-98075000I249999J0D01*
G01*
X134600001Y-98075000D01*
G75*
G02*
X134850000Y-98324999I0J-249999D01*
G01*
X134850000Y-99175001D01*
G75*
G02*
X134600001Y-99425000I-249999J0D01*
G01*
X133524999Y-99425000D01*
G75*
G02*
X133275000Y-99175001I0J249999D01*
G01*
G37*
D14*
X128660000Y-98005000D03*
X131200000Y-98005000D03*
X128660000Y-95465000D03*
X131200000Y-95465000D03*
X128660000Y-92925000D03*
X131200000Y-92925000D03*
X128660000Y-90385000D03*
X131200000Y-90385000D03*
X128660000Y-87845000D03*
X131200000Y-87845000D03*
X128660000Y-85305000D03*
D15*
X131200000Y-85305000D03*
M02*
