M48
; DRILL file {KiCad 5.1.10-1.fc33} date Sun Oct 10 14:47:02 2021
; FORMAT={-:-/ absolute / metric / decimal}
; #@! TF.CreationDate,2021-10-10T14:47:02-05:00
; #@! TF.GenerationSoftware,Kicad,Pcbnew,5.1.10-1.fc33
FMAT,2
METRIC
T1C0.400
T2C1.000
T3C1.500
T4C1.700
%
G90
G05
T1
X137.25Y-90.0
X137.25Y-96.0
X140.0Y-99.5
X140.088Y-89.912
X140.088Y-95.912
X143.0Y-99.5
X144.75Y-89.75
X144.75Y-95.75
X146.0Y-99.5
X154.0Y-91.5
X157.0Y-91.5
X160.0Y-91.5
X163.0Y-91.5
X166.0Y-91.5
X169.0Y-91.5
T2
X128.66Y-85.305
X128.66Y-87.845
X128.66Y-90.385
X128.66Y-92.925
X128.66Y-95.465
X128.66Y-98.005
X131.2Y-85.305
X131.2Y-87.845
X131.2Y-90.385
X131.2Y-92.925
X131.2Y-95.465
X131.2Y-98.005
T3
X176.5Y-87.0
X176.5Y-96.5
T4
X173.96Y-84.46
X173.96Y-89.54
X173.96Y-93.96
X173.96Y-99.04
X179.04Y-84.46
X179.04Y-89.54
X179.04Y-93.96
X179.04Y-99.04
T0
M30
