G04 #@! TF.GenerationSoftware,KiCad,Pcbnew,5.1.10-1.fc33*
G04 #@! TF.CreationDate,2021-10-10T14:47:09-05:00*
G04 #@! TF.ProjectId,lvds_pmod,6c766473-5f70-46d6-9f64-2e6b69636164,A*
G04 #@! TF.SameCoordinates,Original*
G04 #@! TF.FileFunction,Legend,Top*
G04 #@! TF.FilePolarity,Positive*
%FSLAX46Y46*%
G04 Gerber Fmt 4.6, Leading zero omitted, Abs format (unit mm)*
G04 Created by KiCad (PCBNEW 5.1.10-1.fc33) date 2021-10-10 14:47:09*
%MOMM*%
%LPD*%
G01*
G04 APERTURE LIST*
%ADD10C,0.300000*%
%ADD11C,0.150000*%
%ADD12C,0.120000*%
%ADD13C,0.200000*%
%ADD14C,0.127000*%
G04 APERTURE END LIST*
D10*
X170571428Y-95000000D02*
X171285714Y-94500000D01*
X170571428Y-94142857D02*
X172071428Y-94142857D01*
X172071428Y-94714285D01*
X172000000Y-94857142D01*
X171928571Y-94928571D01*
X171785714Y-95000000D01*
X171571428Y-95000000D01*
X171428571Y-94928571D01*
X171357142Y-94857142D01*
X171285714Y-94714285D01*
X171285714Y-94142857D01*
X171357142Y-96142857D02*
X171357142Y-95642857D01*
X170571428Y-95642857D02*
X172071428Y-95642857D01*
X172071428Y-96357142D01*
X171357142Y-98571428D02*
X171285714Y-98785714D01*
X171214285Y-98857142D01*
X171071428Y-98928571D01*
X170857142Y-98928571D01*
X170714285Y-98857142D01*
X170642857Y-98785714D01*
X170571428Y-98642857D01*
X170571428Y-98071428D01*
X172071428Y-98071428D01*
X172071428Y-98571428D01*
X172000000Y-98714285D01*
X171928571Y-98785714D01*
X171785714Y-98857142D01*
X171642857Y-98857142D01*
X171500000Y-98785714D01*
X171428571Y-98714285D01*
X171357142Y-98571428D01*
X171357142Y-98071428D01*
X170571428Y-85607142D02*
X171285714Y-85107142D01*
X170571428Y-84750000D02*
X172071428Y-84750000D01*
X172071428Y-85321428D01*
X172000000Y-85464285D01*
X171928571Y-85535714D01*
X171785714Y-85607142D01*
X171571428Y-85607142D01*
X171428571Y-85535714D01*
X171357142Y-85464285D01*
X171285714Y-85321428D01*
X171285714Y-84750000D01*
X171357142Y-86750000D02*
X171357142Y-86250000D01*
X170571428Y-86250000D02*
X172071428Y-86250000D01*
X172071428Y-86964285D01*
X171000000Y-88607142D02*
X171000000Y-89321428D01*
X170571428Y-88464285D02*
X172071428Y-88964285D01*
X170571428Y-89464285D01*
D11*
X142190476Y-83472619D02*
X142238095Y-83425000D01*
X142333333Y-83377380D01*
X142571428Y-83377380D01*
X142666666Y-83425000D01*
X142714285Y-83472619D01*
X142761904Y-83567857D01*
X142761904Y-83663095D01*
X142714285Y-83805952D01*
X142142857Y-84377380D01*
X142761904Y-84377380D01*
X143190476Y-84377380D02*
X143190476Y-83710714D01*
X143190476Y-83805952D02*
X143238095Y-83758333D01*
X143333333Y-83710714D01*
X143476190Y-83710714D01*
X143571428Y-83758333D01*
X143619047Y-83853571D01*
X143619047Y-84377380D01*
X143619047Y-83853571D02*
X143666666Y-83758333D01*
X143761904Y-83710714D01*
X143904761Y-83710714D01*
X144000000Y-83758333D01*
X144047619Y-83853571D01*
X144047619Y-84377380D01*
X145952380Y-84472619D02*
X145857142Y-84425000D01*
X145761904Y-84329761D01*
X145619047Y-84186904D01*
X145523809Y-84139285D01*
X145428571Y-84139285D01*
X145476190Y-84377380D02*
X145380952Y-84329761D01*
X145285714Y-84234523D01*
X145238095Y-84044047D01*
X145238095Y-83710714D01*
X145285714Y-83520238D01*
X145380952Y-83425000D01*
X145476190Y-83377380D01*
X145666666Y-83377380D01*
X145761904Y-83425000D01*
X145857142Y-83520238D01*
X145904761Y-83710714D01*
X145904761Y-84044047D01*
X145857142Y-84234523D01*
X145761904Y-84329761D01*
X145666666Y-84377380D01*
X145476190Y-84377380D01*
X146285714Y-84329761D02*
X146428571Y-84377380D01*
X146666666Y-84377380D01*
X146761904Y-84329761D01*
X146809523Y-84282142D01*
X146857142Y-84186904D01*
X146857142Y-84091666D01*
X146809523Y-83996428D01*
X146761904Y-83948809D01*
X146666666Y-83901190D01*
X146476190Y-83853571D01*
X146380952Y-83805952D01*
X146333333Y-83758333D01*
X146285714Y-83663095D01*
X146285714Y-83567857D01*
X146333333Y-83472619D01*
X146380952Y-83425000D01*
X146476190Y-83377380D01*
X146714285Y-83377380D01*
X146857142Y-83425000D01*
X147285714Y-84377380D02*
X147285714Y-83377380D01*
X147523809Y-83377380D01*
X147666666Y-83425000D01*
X147761904Y-83520238D01*
X147809523Y-83615476D01*
X147857142Y-83805952D01*
X147857142Y-83948809D01*
X147809523Y-84139285D01*
X147761904Y-84234523D01*
X147666666Y-84329761D01*
X147523809Y-84377380D01*
X147285714Y-84377380D01*
X149047619Y-84377380D02*
X149047619Y-83377380D01*
X149428571Y-83377380D01*
X149523809Y-83425000D01*
X149571428Y-83472619D01*
X149619047Y-83567857D01*
X149619047Y-83710714D01*
X149571428Y-83805952D01*
X149523809Y-83853571D01*
X149428571Y-83901190D01*
X149047619Y-83901190D01*
X150047619Y-84377380D02*
X150047619Y-83377380D01*
X150380952Y-84091666D01*
X150714285Y-83377380D01*
X150714285Y-84377380D01*
X151380952Y-83377380D02*
X151571428Y-83377380D01*
X151666666Y-83425000D01*
X151761904Y-83520238D01*
X151809523Y-83710714D01*
X151809523Y-84044047D01*
X151761904Y-84234523D01*
X151666666Y-84329761D01*
X151571428Y-84377380D01*
X151380952Y-84377380D01*
X151285714Y-84329761D01*
X151190476Y-84234523D01*
X151142857Y-84044047D01*
X151142857Y-83710714D01*
X151190476Y-83520238D01*
X151285714Y-83425000D01*
X151380952Y-83377380D01*
X152238095Y-84377380D02*
X152238095Y-83377380D01*
X152476190Y-83377380D01*
X152619047Y-83425000D01*
X152714285Y-83520238D01*
X152761904Y-83615476D01*
X152809523Y-83805952D01*
X152809523Y-83948809D01*
X152761904Y-84139285D01*
X152714285Y-84234523D01*
X152619047Y-84329761D01*
X152476190Y-84377380D01*
X152238095Y-84377380D01*
X146190476Y-86027380D02*
X145857142Y-85551190D01*
X145619047Y-86027380D02*
X145619047Y-85027380D01*
X146000000Y-85027380D01*
X146095238Y-85075000D01*
X146142857Y-85122619D01*
X146190476Y-85217857D01*
X146190476Y-85360714D01*
X146142857Y-85455952D01*
X146095238Y-85503571D01*
X146000000Y-85551190D01*
X145619047Y-85551190D01*
X147000000Y-85979761D02*
X146904761Y-86027380D01*
X146714285Y-86027380D01*
X146619047Y-85979761D01*
X146571428Y-85884523D01*
X146571428Y-85503571D01*
X146619047Y-85408333D01*
X146714285Y-85360714D01*
X146904761Y-85360714D01*
X147000000Y-85408333D01*
X147047619Y-85503571D01*
X147047619Y-85598809D01*
X146571428Y-85694047D01*
X147380952Y-85360714D02*
X147619047Y-86027380D01*
X147857142Y-85360714D01*
X148952380Y-85741666D02*
X149428571Y-85741666D01*
X148857142Y-86027380D02*
X149190476Y-85027380D01*
X149523809Y-86027380D01*
D12*
X167260000Y-95328733D02*
X167260000Y-95671267D01*
X166240000Y-95328733D02*
X166240000Y-95671267D01*
X167260000Y-87828733D02*
X167260000Y-88171267D01*
X166240000Y-87828733D02*
X166240000Y-88171267D01*
X163760000Y-95328733D02*
X163760000Y-95671267D01*
X162740000Y-95328733D02*
X162740000Y-95671267D01*
X163760000Y-87828733D02*
X163760000Y-88171267D01*
X162740000Y-87828733D02*
X162740000Y-88171267D01*
X160260000Y-95328733D02*
X160260000Y-95671267D01*
X159240000Y-95328733D02*
X159240000Y-95671267D01*
X160260000Y-87828733D02*
X160260000Y-88171267D01*
X159240000Y-87828733D02*
X159240000Y-88171267D01*
X156760000Y-95328733D02*
X156760000Y-95671267D01*
X155740000Y-95328733D02*
X155740000Y-95671267D01*
X156760000Y-87828733D02*
X156760000Y-88171267D01*
X155740000Y-87828733D02*
X155740000Y-88171267D01*
X169010000Y-95353733D02*
X169010000Y-95646267D01*
X167990000Y-95353733D02*
X167990000Y-95646267D01*
X169010000Y-87853733D02*
X169010000Y-88146267D01*
X167990000Y-87853733D02*
X167990000Y-88146267D01*
X165510000Y-95353733D02*
X165510000Y-95646267D01*
X164490000Y-95353733D02*
X164490000Y-95646267D01*
X165510000Y-87853733D02*
X165510000Y-88146267D01*
X164490000Y-87853733D02*
X164490000Y-88146267D01*
X162010000Y-95353733D02*
X162010000Y-95646267D01*
X160990000Y-95353733D02*
X160990000Y-95646267D01*
X162010000Y-87853733D02*
X162010000Y-88146267D01*
X160990000Y-87853733D02*
X160990000Y-88146267D01*
X158510000Y-95353733D02*
X158510000Y-95646267D01*
X157490000Y-95353733D02*
X157490000Y-95646267D01*
X158510000Y-87853733D02*
X158510000Y-88146267D01*
X157490000Y-87853733D02*
X157490000Y-88146267D01*
X153609420Y-93990000D02*
X153890580Y-93990000D01*
X153609420Y-95010000D02*
X153890580Y-95010000D01*
X153609420Y-86490000D02*
X153890580Y-86490000D01*
X153609420Y-87510000D02*
X153890580Y-87510000D01*
D13*
X146350000Y-96250000D02*
G75*
G03*
X146350000Y-96250000I-100000J0D01*
G01*
D14*
X151155000Y-96963500D02*
X147345000Y-96963500D01*
X147345000Y-93036500D02*
X151155000Y-93036500D01*
D13*
X146350000Y-90250000D02*
G75*
G03*
X146350000Y-90250000I-100000J0D01*
G01*
D14*
X151155000Y-90963500D02*
X147345000Y-90963500D01*
X147345000Y-87036500D02*
X151155000Y-87036500D01*
D12*
X137977500Y-94745276D02*
X137977500Y-95254724D01*
X139022500Y-94745276D02*
X139022500Y-95254724D01*
X141772500Y-95254724D02*
X141772500Y-94745276D01*
X140727500Y-95254724D02*
X140727500Y-94745276D01*
X137977500Y-88745276D02*
X137977500Y-89254724D01*
X139022500Y-88745276D02*
X139022500Y-89254724D01*
X141772500Y-89254724D02*
X141772500Y-88745276D01*
X140727500Y-89254724D02*
X140727500Y-88745276D01*
X175050000Y-93145000D02*
X177950000Y-93145000D01*
X175050000Y-99855000D02*
X177950000Y-99855000D01*
X179855000Y-95050000D02*
X179855000Y-97950000D01*
X173145000Y-95050000D02*
X173145000Y-97950000D01*
X175050000Y-83645000D02*
X177950000Y-83645000D01*
X175050000Y-90355000D02*
X177950000Y-90355000D01*
X179855000Y-85550000D02*
X179855000Y-88450000D01*
X173145000Y-85550000D02*
X173145000Y-88450000D01*
X142990000Y-94853733D02*
X142990000Y-95146267D01*
X144010000Y-94853733D02*
X144010000Y-95146267D01*
X142990000Y-88853733D02*
X142990000Y-89146267D01*
X144010000Y-88853733D02*
X144010000Y-89146267D01*
X133015000Y-99685000D02*
X137100000Y-99685000D01*
X133015000Y-97815000D02*
X133015000Y-99685000D01*
X137100000Y-97815000D02*
X133015000Y-97815000D01*
X127220000Y-83975000D02*
X127220000Y-99335000D01*
X127220000Y-99335000D02*
X124560000Y-99335000D01*
X124560000Y-99335000D02*
X124560000Y-83975000D01*
X124560000Y-83975000D02*
X127220000Y-83975000D01*
X124560000Y-84925000D02*
X118560000Y-84925000D01*
X118560000Y-84925000D02*
X118560000Y-85685000D01*
X118560000Y-85685000D02*
X124560000Y-85685000D01*
X124560000Y-84985000D02*
X118560000Y-84985000D01*
X124560000Y-85105000D02*
X118560000Y-85105000D01*
X124560000Y-85225000D02*
X118560000Y-85225000D01*
X124560000Y-85345000D02*
X118560000Y-85345000D01*
X124560000Y-85465000D02*
X118560000Y-85465000D01*
X124560000Y-85585000D02*
X118560000Y-85585000D01*
X127617071Y-84925000D02*
X127220000Y-84925000D01*
X127617071Y-85685000D02*
X127220000Y-85685000D01*
X130090000Y-84925000D02*
X129702929Y-84925000D01*
X130090000Y-85685000D02*
X129702929Y-85685000D01*
X127220000Y-86575000D02*
X124560000Y-86575000D01*
X124560000Y-87465000D02*
X118560000Y-87465000D01*
X118560000Y-87465000D02*
X118560000Y-88225000D01*
X118560000Y-88225000D02*
X124560000Y-88225000D01*
X127617071Y-87465000D02*
X127220000Y-87465000D01*
X127617071Y-88225000D02*
X127220000Y-88225000D01*
X130157071Y-87465000D02*
X129702929Y-87465000D01*
X130157071Y-88225000D02*
X129702929Y-88225000D01*
X127220000Y-89115000D02*
X124560000Y-89115000D01*
X124560000Y-90005000D02*
X118560000Y-90005000D01*
X118560000Y-90005000D02*
X118560000Y-90765000D01*
X118560000Y-90765000D02*
X124560000Y-90765000D01*
X127617071Y-90005000D02*
X127220000Y-90005000D01*
X127617071Y-90765000D02*
X127220000Y-90765000D01*
X130157071Y-90005000D02*
X129702929Y-90005000D01*
X130157071Y-90765000D02*
X129702929Y-90765000D01*
X127220000Y-91655000D02*
X124560000Y-91655000D01*
X124560000Y-92545000D02*
X118560000Y-92545000D01*
X118560000Y-92545000D02*
X118560000Y-93305000D01*
X118560000Y-93305000D02*
X124560000Y-93305000D01*
X127617071Y-92545000D02*
X127220000Y-92545000D01*
X127617071Y-93305000D02*
X127220000Y-93305000D01*
X130157071Y-92545000D02*
X129702929Y-92545000D01*
X130157071Y-93305000D02*
X129702929Y-93305000D01*
X127220000Y-94195000D02*
X124560000Y-94195000D01*
X124560000Y-95085000D02*
X118560000Y-95085000D01*
X118560000Y-95085000D02*
X118560000Y-95845000D01*
X118560000Y-95845000D02*
X124560000Y-95845000D01*
X127617071Y-95085000D02*
X127220000Y-95085000D01*
X127617071Y-95845000D02*
X127220000Y-95845000D01*
X130157071Y-95085000D02*
X129702929Y-95085000D01*
X130157071Y-95845000D02*
X129702929Y-95845000D01*
X127220000Y-96735000D02*
X124560000Y-96735000D01*
X124560000Y-97625000D02*
X118560000Y-97625000D01*
X118560000Y-97625000D02*
X118560000Y-98385000D01*
X118560000Y-98385000D02*
X124560000Y-98385000D01*
X127617071Y-97625000D02*
X127220000Y-97625000D01*
X127617071Y-98385000D02*
X127220000Y-98385000D01*
X130157071Y-97625000D02*
X129702929Y-97625000D01*
X130157071Y-98385000D02*
X129702929Y-98385000D01*
X132470000Y-85305000D02*
X132470000Y-84035000D01*
X132470000Y-84035000D02*
X131200000Y-84035000D01*
D11*
X166583333Y-93702380D02*
X166107142Y-93702380D01*
X166107142Y-92702380D01*
X167059523Y-93130952D02*
X166964285Y-93083333D01*
X166916666Y-93035714D01*
X166869047Y-92940476D01*
X166869047Y-92892857D01*
X166916666Y-92797619D01*
X166964285Y-92750000D01*
X167059523Y-92702380D01*
X167250000Y-92702380D01*
X167345238Y-92750000D01*
X167392857Y-92797619D01*
X167440476Y-92892857D01*
X167440476Y-92940476D01*
X167392857Y-93035714D01*
X167345238Y-93083333D01*
X167250000Y-93130952D01*
X167059523Y-93130952D01*
X166964285Y-93178571D01*
X166916666Y-93226190D01*
X166869047Y-93321428D01*
X166869047Y-93511904D01*
X166916666Y-93607142D01*
X166964285Y-93654761D01*
X167059523Y-93702380D01*
X167250000Y-93702380D01*
X167345238Y-93654761D01*
X167392857Y-93607142D01*
X167440476Y-93511904D01*
X167440476Y-93321428D01*
X167392857Y-93226190D01*
X167345238Y-93178571D01*
X167250000Y-93130952D01*
X166583333Y-90952380D02*
X166107142Y-90952380D01*
X166107142Y-89952380D01*
X166821428Y-89952380D02*
X167488095Y-89952380D01*
X167059523Y-90952380D01*
X163083333Y-93702380D02*
X162607142Y-93702380D01*
X162607142Y-92702380D01*
X163845238Y-92702380D02*
X163654761Y-92702380D01*
X163559523Y-92750000D01*
X163511904Y-92797619D01*
X163416666Y-92940476D01*
X163369047Y-93130952D01*
X163369047Y-93511904D01*
X163416666Y-93607142D01*
X163464285Y-93654761D01*
X163559523Y-93702380D01*
X163750000Y-93702380D01*
X163845238Y-93654761D01*
X163892857Y-93607142D01*
X163940476Y-93511904D01*
X163940476Y-93273809D01*
X163892857Y-93178571D01*
X163845238Y-93130952D01*
X163750000Y-93083333D01*
X163559523Y-93083333D01*
X163464285Y-93130952D01*
X163416666Y-93178571D01*
X163369047Y-93273809D01*
X163083333Y-90952380D02*
X162607142Y-90952380D01*
X162607142Y-89952380D01*
X163892857Y-89952380D02*
X163416666Y-89952380D01*
X163369047Y-90428571D01*
X163416666Y-90380952D01*
X163511904Y-90333333D01*
X163750000Y-90333333D01*
X163845238Y-90380952D01*
X163892857Y-90428571D01*
X163940476Y-90523809D01*
X163940476Y-90761904D01*
X163892857Y-90857142D01*
X163845238Y-90904761D01*
X163750000Y-90952380D01*
X163511904Y-90952380D01*
X163416666Y-90904761D01*
X163369047Y-90857142D01*
X159583333Y-93702380D02*
X159107142Y-93702380D01*
X159107142Y-92702380D01*
X160345238Y-93035714D02*
X160345238Y-93702380D01*
X160107142Y-92654761D02*
X159869047Y-93369047D01*
X160488095Y-93369047D01*
X159583333Y-90952380D02*
X159107142Y-90952380D01*
X159107142Y-89952380D01*
X159821428Y-89952380D02*
X160440476Y-89952380D01*
X160107142Y-90333333D01*
X160250000Y-90333333D01*
X160345238Y-90380952D01*
X160392857Y-90428571D01*
X160440476Y-90523809D01*
X160440476Y-90761904D01*
X160392857Y-90857142D01*
X160345238Y-90904761D01*
X160250000Y-90952380D01*
X159964285Y-90952380D01*
X159869047Y-90904761D01*
X159821428Y-90857142D01*
X156083333Y-93702380D02*
X155607142Y-93702380D01*
X155607142Y-92702380D01*
X156369047Y-92797619D02*
X156416666Y-92750000D01*
X156511904Y-92702380D01*
X156750000Y-92702380D01*
X156845238Y-92750000D01*
X156892857Y-92797619D01*
X156940476Y-92892857D01*
X156940476Y-92988095D01*
X156892857Y-93130952D01*
X156321428Y-93702380D01*
X156940476Y-93702380D01*
X156083333Y-90952380D02*
X155607142Y-90952380D01*
X155607142Y-89952380D01*
X156940476Y-90952380D02*
X156369047Y-90952380D01*
X156654761Y-90952380D02*
X156654761Y-89952380D01*
X156559523Y-90095238D01*
X156464285Y-90190476D01*
X156369047Y-90238095D01*
X167857142Y-98357142D02*
X167809523Y-98404761D01*
X167666666Y-98452380D01*
X167571428Y-98452380D01*
X167428571Y-98404761D01*
X167333333Y-98309523D01*
X167285714Y-98214285D01*
X167238095Y-98023809D01*
X167238095Y-97880952D01*
X167285714Y-97690476D01*
X167333333Y-97595238D01*
X167428571Y-97500000D01*
X167571428Y-97452380D01*
X167666666Y-97452380D01*
X167809523Y-97500000D01*
X167857142Y-97547619D01*
X168809523Y-98452380D02*
X168238095Y-98452380D01*
X168523809Y-98452380D02*
X168523809Y-97452380D01*
X168428571Y-97595238D01*
X168333333Y-97690476D01*
X168238095Y-97738095D01*
X169142857Y-97452380D02*
X169761904Y-97452380D01*
X169428571Y-97833333D01*
X169571428Y-97833333D01*
X169666666Y-97880952D01*
X169714285Y-97928571D01*
X169761904Y-98023809D01*
X169761904Y-98261904D01*
X169714285Y-98357142D01*
X169666666Y-98404761D01*
X169571428Y-98452380D01*
X169285714Y-98452380D01*
X169190476Y-98404761D01*
X169142857Y-98357142D01*
X167857142Y-86107142D02*
X167809523Y-86154761D01*
X167666666Y-86202380D01*
X167571428Y-86202380D01*
X167428571Y-86154761D01*
X167333333Y-86059523D01*
X167285714Y-85964285D01*
X167238095Y-85773809D01*
X167238095Y-85630952D01*
X167285714Y-85440476D01*
X167333333Y-85345238D01*
X167428571Y-85250000D01*
X167571428Y-85202380D01*
X167666666Y-85202380D01*
X167809523Y-85250000D01*
X167857142Y-85297619D01*
X168809523Y-86202380D02*
X168238095Y-86202380D01*
X168523809Y-86202380D02*
X168523809Y-85202380D01*
X168428571Y-85345238D01*
X168333333Y-85440476D01*
X168238095Y-85488095D01*
X169190476Y-85297619D02*
X169238095Y-85250000D01*
X169333333Y-85202380D01*
X169571428Y-85202380D01*
X169666666Y-85250000D01*
X169714285Y-85297619D01*
X169761904Y-85392857D01*
X169761904Y-85488095D01*
X169714285Y-85630952D01*
X169142857Y-86202380D01*
X169761904Y-86202380D01*
X164357142Y-98357142D02*
X164309523Y-98404761D01*
X164166666Y-98452380D01*
X164071428Y-98452380D01*
X163928571Y-98404761D01*
X163833333Y-98309523D01*
X163785714Y-98214285D01*
X163738095Y-98023809D01*
X163738095Y-97880952D01*
X163785714Y-97690476D01*
X163833333Y-97595238D01*
X163928571Y-97500000D01*
X164071428Y-97452380D01*
X164166666Y-97452380D01*
X164309523Y-97500000D01*
X164357142Y-97547619D01*
X165309523Y-98452380D02*
X164738095Y-98452380D01*
X165023809Y-98452380D02*
X165023809Y-97452380D01*
X164928571Y-97595238D01*
X164833333Y-97690476D01*
X164738095Y-97738095D01*
X166261904Y-98452380D02*
X165690476Y-98452380D01*
X165976190Y-98452380D02*
X165976190Y-97452380D01*
X165880952Y-97595238D01*
X165785714Y-97690476D01*
X165690476Y-97738095D01*
X164357142Y-86107142D02*
X164309523Y-86154761D01*
X164166666Y-86202380D01*
X164071428Y-86202380D01*
X163928571Y-86154761D01*
X163833333Y-86059523D01*
X163785714Y-85964285D01*
X163738095Y-85773809D01*
X163738095Y-85630952D01*
X163785714Y-85440476D01*
X163833333Y-85345238D01*
X163928571Y-85250000D01*
X164071428Y-85202380D01*
X164166666Y-85202380D01*
X164309523Y-85250000D01*
X164357142Y-85297619D01*
X165309523Y-86202380D02*
X164738095Y-86202380D01*
X165023809Y-86202380D02*
X165023809Y-85202380D01*
X164928571Y-85345238D01*
X164833333Y-85440476D01*
X164738095Y-85488095D01*
X165928571Y-85202380D02*
X166023809Y-85202380D01*
X166119047Y-85250000D01*
X166166666Y-85297619D01*
X166214285Y-85392857D01*
X166261904Y-85583333D01*
X166261904Y-85821428D01*
X166214285Y-86011904D01*
X166166666Y-86107142D01*
X166119047Y-86154761D01*
X166023809Y-86202380D01*
X165928571Y-86202380D01*
X165833333Y-86154761D01*
X165785714Y-86107142D01*
X165738095Y-86011904D01*
X165690476Y-85821428D01*
X165690476Y-85583333D01*
X165738095Y-85392857D01*
X165785714Y-85297619D01*
X165833333Y-85250000D01*
X165928571Y-85202380D01*
X161333333Y-98357142D02*
X161285714Y-98404761D01*
X161142857Y-98452380D01*
X161047619Y-98452380D01*
X160904761Y-98404761D01*
X160809523Y-98309523D01*
X160761904Y-98214285D01*
X160714285Y-98023809D01*
X160714285Y-97880952D01*
X160761904Y-97690476D01*
X160809523Y-97595238D01*
X160904761Y-97500000D01*
X161047619Y-97452380D01*
X161142857Y-97452380D01*
X161285714Y-97500000D01*
X161333333Y-97547619D01*
X161809523Y-98452380D02*
X162000000Y-98452380D01*
X162095238Y-98404761D01*
X162142857Y-98357142D01*
X162238095Y-98214285D01*
X162285714Y-98023809D01*
X162285714Y-97642857D01*
X162238095Y-97547619D01*
X162190476Y-97500000D01*
X162095238Y-97452380D01*
X161904761Y-97452380D01*
X161809523Y-97500000D01*
X161761904Y-97547619D01*
X161714285Y-97642857D01*
X161714285Y-97880952D01*
X161761904Y-97976190D01*
X161809523Y-98023809D01*
X161904761Y-98071428D01*
X162095238Y-98071428D01*
X162190476Y-98023809D01*
X162238095Y-97976190D01*
X162285714Y-97880952D01*
X161333333Y-86107142D02*
X161285714Y-86154761D01*
X161142857Y-86202380D01*
X161047619Y-86202380D01*
X160904761Y-86154761D01*
X160809523Y-86059523D01*
X160761904Y-85964285D01*
X160714285Y-85773809D01*
X160714285Y-85630952D01*
X160761904Y-85440476D01*
X160809523Y-85345238D01*
X160904761Y-85250000D01*
X161047619Y-85202380D01*
X161142857Y-85202380D01*
X161285714Y-85250000D01*
X161333333Y-85297619D01*
X161904761Y-85630952D02*
X161809523Y-85583333D01*
X161761904Y-85535714D01*
X161714285Y-85440476D01*
X161714285Y-85392857D01*
X161761904Y-85297619D01*
X161809523Y-85250000D01*
X161904761Y-85202380D01*
X162095238Y-85202380D01*
X162190476Y-85250000D01*
X162238095Y-85297619D01*
X162285714Y-85392857D01*
X162285714Y-85440476D01*
X162238095Y-85535714D01*
X162190476Y-85583333D01*
X162095238Y-85630952D01*
X161904761Y-85630952D01*
X161809523Y-85678571D01*
X161761904Y-85726190D01*
X161714285Y-85821428D01*
X161714285Y-86011904D01*
X161761904Y-86107142D01*
X161809523Y-86154761D01*
X161904761Y-86202380D01*
X162095238Y-86202380D01*
X162190476Y-86154761D01*
X162238095Y-86107142D01*
X162285714Y-86011904D01*
X162285714Y-85821428D01*
X162238095Y-85726190D01*
X162190476Y-85678571D01*
X162095238Y-85630952D01*
X157833333Y-98357142D02*
X157785714Y-98404761D01*
X157642857Y-98452380D01*
X157547619Y-98452380D01*
X157404761Y-98404761D01*
X157309523Y-98309523D01*
X157261904Y-98214285D01*
X157214285Y-98023809D01*
X157214285Y-97880952D01*
X157261904Y-97690476D01*
X157309523Y-97595238D01*
X157404761Y-97500000D01*
X157547619Y-97452380D01*
X157642857Y-97452380D01*
X157785714Y-97500000D01*
X157833333Y-97547619D01*
X158166666Y-97452380D02*
X158833333Y-97452380D01*
X158404761Y-98452380D01*
X157833333Y-86107142D02*
X157785714Y-86154761D01*
X157642857Y-86202380D01*
X157547619Y-86202380D01*
X157404761Y-86154761D01*
X157309523Y-86059523D01*
X157261904Y-85964285D01*
X157214285Y-85773809D01*
X157214285Y-85630952D01*
X157261904Y-85440476D01*
X157309523Y-85345238D01*
X157404761Y-85250000D01*
X157547619Y-85202380D01*
X157642857Y-85202380D01*
X157785714Y-85250000D01*
X157833333Y-85297619D01*
X158690476Y-85202380D02*
X158500000Y-85202380D01*
X158404761Y-85250000D01*
X158357142Y-85297619D01*
X158261904Y-85440476D01*
X158214285Y-85630952D01*
X158214285Y-86011904D01*
X158261904Y-86107142D01*
X158309523Y-86154761D01*
X158404761Y-86202380D01*
X158595238Y-86202380D01*
X158690476Y-86154761D01*
X158738095Y-86107142D01*
X158785714Y-86011904D01*
X158785714Y-85773809D01*
X158738095Y-85678571D01*
X158690476Y-85630952D01*
X158595238Y-85583333D01*
X158404761Y-85583333D01*
X158309523Y-85630952D01*
X158261904Y-85678571D01*
X158214285Y-85773809D01*
X153583333Y-93427142D02*
X153535714Y-93474761D01*
X153392857Y-93522380D01*
X153297619Y-93522380D01*
X153154761Y-93474761D01*
X153059523Y-93379523D01*
X153011904Y-93284285D01*
X152964285Y-93093809D01*
X152964285Y-92950952D01*
X153011904Y-92760476D01*
X153059523Y-92665238D01*
X153154761Y-92570000D01*
X153297619Y-92522380D01*
X153392857Y-92522380D01*
X153535714Y-92570000D01*
X153583333Y-92617619D01*
X154488095Y-92522380D02*
X154011904Y-92522380D01*
X153964285Y-92998571D01*
X154011904Y-92950952D01*
X154107142Y-92903333D01*
X154345238Y-92903333D01*
X154440476Y-92950952D01*
X154488095Y-92998571D01*
X154535714Y-93093809D01*
X154535714Y-93331904D01*
X154488095Y-93427142D01*
X154440476Y-93474761D01*
X154345238Y-93522380D01*
X154107142Y-93522380D01*
X154011904Y-93474761D01*
X153964285Y-93427142D01*
X153583333Y-85927142D02*
X153535714Y-85974761D01*
X153392857Y-86022380D01*
X153297619Y-86022380D01*
X153154761Y-85974761D01*
X153059523Y-85879523D01*
X153011904Y-85784285D01*
X152964285Y-85593809D01*
X152964285Y-85450952D01*
X153011904Y-85260476D01*
X153059523Y-85165238D01*
X153154761Y-85070000D01*
X153297619Y-85022380D01*
X153392857Y-85022380D01*
X153535714Y-85070000D01*
X153583333Y-85117619D01*
X154440476Y-85355714D02*
X154440476Y-86022380D01*
X154202380Y-84974761D02*
X153964285Y-85689047D01*
X154583333Y-85689047D01*
X144817380Y-95086904D02*
X144817380Y-94515476D01*
X145817380Y-94801190D02*
X144817380Y-94801190D01*
X145817380Y-93610714D02*
X145341190Y-93944047D01*
X145817380Y-94182142D02*
X144817380Y-94182142D01*
X144817380Y-93801190D01*
X144865000Y-93705952D01*
X144912619Y-93658333D01*
X145007857Y-93610714D01*
X145150714Y-93610714D01*
X145245952Y-93658333D01*
X145293571Y-93705952D01*
X145341190Y-93801190D01*
X145341190Y-94182142D01*
X144912619Y-93229761D02*
X144865000Y-93182142D01*
X144817380Y-93086904D01*
X144817380Y-92848809D01*
X144865000Y-92753571D01*
X144912619Y-92705952D01*
X145007857Y-92658333D01*
X145103095Y-92658333D01*
X145245952Y-92705952D01*
X145817380Y-93277380D01*
X145817380Y-92658333D01*
X144817380Y-89086904D02*
X144817380Y-88515476D01*
X145817380Y-88801190D02*
X144817380Y-88801190D01*
X145817380Y-87610714D02*
X145341190Y-87944047D01*
X145817380Y-88182142D02*
X144817380Y-88182142D01*
X144817380Y-87801190D01*
X144865000Y-87705952D01*
X144912619Y-87658333D01*
X145007857Y-87610714D01*
X145150714Y-87610714D01*
X145245952Y-87658333D01*
X145293571Y-87705952D01*
X145341190Y-87801190D01*
X145341190Y-88182142D01*
X145817380Y-86658333D02*
X145817380Y-87229761D01*
X145817380Y-86944047D02*
X144817380Y-86944047D01*
X144960238Y-87039285D01*
X145055476Y-87134523D01*
X145103095Y-87229761D01*
X138952380Y-97916666D02*
X138476190Y-98250000D01*
X138952380Y-98488095D02*
X137952380Y-98488095D01*
X137952380Y-98107142D01*
X138000000Y-98011904D01*
X138047619Y-97964285D01*
X138142857Y-97916666D01*
X138285714Y-97916666D01*
X138380952Y-97964285D01*
X138428571Y-98011904D01*
X138476190Y-98107142D01*
X138476190Y-98488095D01*
X138285714Y-97059523D02*
X138952380Y-97059523D01*
X137904761Y-97297619D02*
X138619047Y-97535714D01*
X138619047Y-96916666D01*
X141702380Y-97916666D02*
X141226190Y-98250000D01*
X141702380Y-98488095D02*
X140702380Y-98488095D01*
X140702380Y-98107142D01*
X140750000Y-98011904D01*
X140797619Y-97964285D01*
X140892857Y-97916666D01*
X141035714Y-97916666D01*
X141130952Y-97964285D01*
X141178571Y-98011904D01*
X141226190Y-98107142D01*
X141226190Y-98488095D01*
X140702380Y-97583333D02*
X140702380Y-96964285D01*
X141083333Y-97297619D01*
X141083333Y-97154761D01*
X141130952Y-97059523D01*
X141178571Y-97011904D01*
X141273809Y-96964285D01*
X141511904Y-96964285D01*
X141607142Y-97011904D01*
X141654761Y-97059523D01*
X141702380Y-97154761D01*
X141702380Y-97440476D01*
X141654761Y-97535714D01*
X141607142Y-97583333D01*
X138952380Y-86416666D02*
X138476190Y-86750000D01*
X138952380Y-86988095D02*
X137952380Y-86988095D01*
X137952380Y-86607142D01*
X138000000Y-86511904D01*
X138047619Y-86464285D01*
X138142857Y-86416666D01*
X138285714Y-86416666D01*
X138380952Y-86464285D01*
X138428571Y-86511904D01*
X138476190Y-86607142D01*
X138476190Y-86988095D01*
X138047619Y-86035714D02*
X138000000Y-85988095D01*
X137952380Y-85892857D01*
X137952380Y-85654761D01*
X138000000Y-85559523D01*
X138047619Y-85511904D01*
X138142857Y-85464285D01*
X138238095Y-85464285D01*
X138380952Y-85511904D01*
X138952380Y-86083333D01*
X138952380Y-85464285D01*
X141702380Y-86416666D02*
X141226190Y-86750000D01*
X141702380Y-86988095D02*
X140702380Y-86988095D01*
X140702380Y-86607142D01*
X140750000Y-86511904D01*
X140797619Y-86464285D01*
X140892857Y-86416666D01*
X141035714Y-86416666D01*
X141130952Y-86464285D01*
X141178571Y-86511904D01*
X141226190Y-86607142D01*
X141226190Y-86988095D01*
X141702380Y-85464285D02*
X141702380Y-86035714D01*
X141702380Y-85750000D02*
X140702380Y-85750000D01*
X140845238Y-85845238D01*
X140940476Y-85940476D01*
X140988095Y-86035714D01*
X180202380Y-96833333D02*
X180916666Y-96833333D01*
X181059523Y-96880952D01*
X181154761Y-96976190D01*
X181202380Y-97119047D01*
X181202380Y-97214285D01*
X180202380Y-96452380D02*
X180202380Y-95833333D01*
X180583333Y-96166666D01*
X180583333Y-96023809D01*
X180630952Y-95928571D01*
X180678571Y-95880952D01*
X180773809Y-95833333D01*
X181011904Y-95833333D01*
X181107142Y-95880952D01*
X181154761Y-95928571D01*
X181202380Y-96023809D01*
X181202380Y-96309523D01*
X181154761Y-96404761D01*
X181107142Y-96452380D01*
X180202380Y-87333333D02*
X180916666Y-87333333D01*
X181059523Y-87380952D01*
X181154761Y-87476190D01*
X181202380Y-87619047D01*
X181202380Y-87714285D01*
X180297619Y-86904761D02*
X180250000Y-86857142D01*
X180202380Y-86761904D01*
X180202380Y-86523809D01*
X180250000Y-86428571D01*
X180297619Y-86380952D01*
X180392857Y-86333333D01*
X180488095Y-86333333D01*
X180630952Y-86380952D01*
X181202380Y-86952380D01*
X181202380Y-86333333D01*
X143857142Y-97916666D02*
X143904761Y-97964285D01*
X143952380Y-98107142D01*
X143952380Y-98202380D01*
X143904761Y-98345238D01*
X143809523Y-98440476D01*
X143714285Y-98488095D01*
X143523809Y-98535714D01*
X143380952Y-98535714D01*
X143190476Y-98488095D01*
X143095238Y-98440476D01*
X143000000Y-98345238D01*
X142952380Y-98202380D01*
X142952380Y-98107142D01*
X143000000Y-97964285D01*
X143047619Y-97916666D01*
X142952380Y-97583333D02*
X142952380Y-96964285D01*
X143333333Y-97297619D01*
X143333333Y-97154761D01*
X143380952Y-97059523D01*
X143428571Y-97011904D01*
X143523809Y-96964285D01*
X143761904Y-96964285D01*
X143857142Y-97011904D01*
X143904761Y-97059523D01*
X143952380Y-97154761D01*
X143952380Y-97440476D01*
X143904761Y-97535714D01*
X143857142Y-97583333D01*
X143857142Y-86416666D02*
X143904761Y-86464285D01*
X143952380Y-86607142D01*
X143952380Y-86702380D01*
X143904761Y-86845238D01*
X143809523Y-86940476D01*
X143714285Y-86988095D01*
X143523809Y-87035714D01*
X143380952Y-87035714D01*
X143190476Y-86988095D01*
X143095238Y-86940476D01*
X143000000Y-86845238D01*
X142952380Y-86702380D01*
X142952380Y-86607142D01*
X143000000Y-86464285D01*
X143047619Y-86416666D01*
X143047619Y-86035714D02*
X143000000Y-85988095D01*
X142952380Y-85892857D01*
X142952380Y-85654761D01*
X143000000Y-85559523D01*
X143047619Y-85511904D01*
X143142857Y-85464285D01*
X143238095Y-85464285D01*
X143380952Y-85511904D01*
X143952380Y-86083333D01*
X143952380Y-85464285D01*
X135333333Y-97357142D02*
X135285714Y-97404761D01*
X135142857Y-97452380D01*
X135047619Y-97452380D01*
X134904761Y-97404761D01*
X134809523Y-97309523D01*
X134761904Y-97214285D01*
X134714285Y-97023809D01*
X134714285Y-96880952D01*
X134761904Y-96690476D01*
X134809523Y-96595238D01*
X134904761Y-96500000D01*
X135047619Y-96452380D01*
X135142857Y-96452380D01*
X135285714Y-96500000D01*
X135333333Y-96547619D01*
X136285714Y-97452380D02*
X135714285Y-97452380D01*
X136000000Y-97452380D02*
X136000000Y-96452380D01*
X135904761Y-96595238D01*
X135809523Y-96690476D01*
X135714285Y-96738095D01*
X128821666Y-82952380D02*
X128821666Y-83666666D01*
X128774047Y-83809523D01*
X128678809Y-83904761D01*
X128535952Y-83952380D01*
X128440714Y-83952380D01*
X129821666Y-83952380D02*
X129250238Y-83952380D01*
X129535952Y-83952380D02*
X129535952Y-82952380D01*
X129440714Y-83095238D01*
X129345476Y-83190476D01*
X129250238Y-83238095D01*
M02*
