G04 #@! TF.GenerationSoftware,KiCad,Pcbnew,5.1.10-1.fc33*
G04 #@! TF.CreationDate,2021-10-10T14:47:09-05:00*
G04 #@! TF.ProjectId,lvds_pmod,6c766473-5f70-46d6-9f64-2e6b69636164,A*
G04 #@! TF.SameCoordinates,Original*
G04 #@! TF.FileFunction,Legend,Bot*
G04 #@! TF.FilePolarity,Positive*
%FSLAX46Y46*%
G04 Gerber Fmt 4.6, Leading zero omitted, Abs format (unit mm)*
G04 Created by KiCad (PCBNEW 5.1.10-1.fc33) date 2021-10-10 14:47:09*
%MOMM*%
%LPD*%
G01*
G04 APERTURE LIST*
%ADD10C,0.010000*%
G04 APERTURE END LIST*
D10*
G36*
X150270434Y-90287021D02*
G01*
X150177230Y-90328817D01*
X150108911Y-90390670D01*
X150098331Y-90406759D01*
X150079344Y-90449199D01*
X150052450Y-90522430D01*
X150021113Y-90616467D01*
X149988794Y-90721322D01*
X149986235Y-90730000D01*
X149950460Y-90848089D01*
X149919664Y-90933725D01*
X149887732Y-90995308D01*
X149848550Y-91041238D01*
X149796003Y-91079918D01*
X149723978Y-91119747D01*
X149689959Y-91137067D01*
X149523134Y-91239732D01*
X149390568Y-91361063D01*
X149294355Y-91498590D01*
X149236590Y-91649840D01*
X149230240Y-91679367D01*
X149225818Y-91726113D01*
X149222416Y-91812296D01*
X149219986Y-91935034D01*
X149218481Y-92091443D01*
X149217856Y-92278643D01*
X149218062Y-92493749D01*
X149219054Y-92733878D01*
X149220783Y-92996150D01*
X149223204Y-93277680D01*
X149226269Y-93575586D01*
X149229931Y-93886986D01*
X149234144Y-94208996D01*
X149238861Y-94538735D01*
X149244034Y-94873319D01*
X149249617Y-95209866D01*
X149255563Y-95545493D01*
X149261825Y-95877318D01*
X149268355Y-96202458D01*
X149275109Y-96518031D01*
X149282037Y-96821153D01*
X149289094Y-97108942D01*
X149296232Y-97378515D01*
X149303405Y-97626990D01*
X149310565Y-97851484D01*
X149317666Y-98049115D01*
X149324661Y-98217000D01*
X149331503Y-98352256D01*
X149338145Y-98452000D01*
X149340946Y-98483431D01*
X149372619Y-98715727D01*
X149419451Y-98911384D01*
X149484667Y-99073513D01*
X149571491Y-99205221D01*
X149683149Y-99309620D01*
X149822866Y-99389818D01*
X149993868Y-99448925D01*
X150199379Y-99490051D01*
X150409523Y-99513687D01*
X150490393Y-99518357D01*
X150607780Y-99522317D01*
X150755877Y-99525570D01*
X150928874Y-99528119D01*
X151120962Y-99529965D01*
X151326332Y-99531111D01*
X151539175Y-99531559D01*
X151753682Y-99531313D01*
X151964044Y-99530375D01*
X152164453Y-99528747D01*
X152349098Y-99526432D01*
X152512171Y-99523432D01*
X152647863Y-99519750D01*
X152750364Y-99515388D01*
X152791032Y-99512655D01*
X153035302Y-99481965D01*
X153243279Y-99432742D01*
X153417284Y-99363808D01*
X153559639Y-99273981D01*
X153672664Y-99162083D01*
X153758680Y-99026933D01*
X153762745Y-99018654D01*
X153802720Y-98917169D01*
X153841068Y-98785200D01*
X153874945Y-98634580D01*
X153901504Y-98477142D01*
X153910787Y-98402917D01*
X153916645Y-98328170D01*
X153922345Y-98214365D01*
X153927856Y-98064777D01*
X153933146Y-97882681D01*
X153938182Y-97671352D01*
X153942934Y-97434066D01*
X153947369Y-97174096D01*
X153951456Y-96894720D01*
X153955162Y-96599211D01*
X153958457Y-96290844D01*
X153961309Y-95972896D01*
X153963685Y-95648640D01*
X153965555Y-95321352D01*
X153966885Y-94994306D01*
X153967646Y-94670779D01*
X153967804Y-94354046D01*
X153967328Y-94047380D01*
X153966186Y-93754058D01*
X153964348Y-93477354D01*
X153961780Y-93220543D01*
X153961347Y-93185334D01*
X153948684Y-92179917D01*
X153262017Y-92179917D01*
X153247129Y-93502834D01*
X153243972Y-93775254D01*
X153241022Y-94008560D01*
X153238160Y-94205969D01*
X153235269Y-94370700D01*
X153232233Y-94505970D01*
X153228935Y-94614997D01*
X153225257Y-94701000D01*
X153221082Y-94767195D01*
X153216294Y-94816800D01*
X153210776Y-94853034D01*
X153204410Y-94879115D01*
X153197079Y-94898260D01*
X153196328Y-94899834D01*
X153140501Y-94969894D01*
X153045189Y-95030695D01*
X152909958Y-95082382D01*
X152734372Y-95125104D01*
X152517998Y-95159007D01*
X152387833Y-95173334D01*
X152289208Y-95180059D01*
X152157944Y-95184823D01*
X152000813Y-95187725D01*
X151824589Y-95188865D01*
X151636045Y-95188345D01*
X151441951Y-95186263D01*
X151249082Y-95182720D01*
X151064210Y-95177817D01*
X150894107Y-95171654D01*
X150745546Y-95164330D01*
X150625299Y-95155947D01*
X150540139Y-95146604D01*
X150535750Y-95145929D01*
X150434970Y-95129015D01*
X150340216Y-95111324D01*
X150265689Y-95095585D01*
X150239416Y-95089014D01*
X150147856Y-95055699D01*
X150062706Y-95011028D01*
X149995024Y-94961932D01*
X149955863Y-94915343D01*
X149953399Y-94909713D01*
X149948578Y-94876616D01*
X149943935Y-94806023D01*
X149939508Y-94702335D01*
X149935335Y-94569953D01*
X149931454Y-94413279D01*
X149927902Y-94236716D01*
X149924717Y-94044663D01*
X149921938Y-93841524D01*
X149919601Y-93631699D01*
X149917745Y-93419590D01*
X149916407Y-93209599D01*
X149915626Y-93006127D01*
X149915439Y-92813576D01*
X149915884Y-92636348D01*
X149916999Y-92478844D01*
X149918821Y-92345466D01*
X149921389Y-92240615D01*
X149924740Y-92168692D01*
X149928912Y-92134101D01*
X149929538Y-92132535D01*
X149970848Y-92086152D01*
X150041811Y-92036143D01*
X150131000Y-91989110D01*
X150226989Y-91951652D01*
X150258626Y-91942408D01*
X150405849Y-91911279D01*
X150588248Y-91885290D01*
X150798967Y-91864543D01*
X151031149Y-91849141D01*
X151277938Y-91839187D01*
X151532478Y-91834782D01*
X151787911Y-91836031D01*
X152037383Y-91843034D01*
X152274036Y-91855895D01*
X152491013Y-91874717D01*
X152681459Y-91899602D01*
X152717473Y-91905613D01*
X152878138Y-91942184D01*
X153017804Y-91991014D01*
X153129433Y-92049102D01*
X153205989Y-92113444D01*
X153206810Y-92114413D01*
X153262017Y-92179917D01*
X153948684Y-92179917D01*
X153942018Y-91650750D01*
X153890820Y-91544917D01*
X153807051Y-91414030D01*
X153688866Y-91290504D01*
X153544182Y-91181641D01*
X153424162Y-91114549D01*
X153311905Y-91065240D01*
X153192039Y-91023224D01*
X153060470Y-90987979D01*
X152913107Y-90958981D01*
X152745855Y-90935706D01*
X152554621Y-90917633D01*
X152335312Y-90904237D01*
X152083835Y-90894996D01*
X151796096Y-90889387D01*
X151650563Y-90887883D01*
X151474567Y-90886296D01*
X151312414Y-90884474D01*
X151168856Y-90882498D01*
X151048643Y-90880448D01*
X150956524Y-90878407D01*
X150897250Y-90876454D01*
X150875574Y-90874675D01*
X150866903Y-90852877D01*
X150848141Y-90799507D01*
X150822290Y-90723250D01*
X150799942Y-90655917D01*
X150759746Y-90538270D01*
X150726075Y-90453779D01*
X150694255Y-90394777D01*
X150659610Y-90353595D01*
X150617466Y-90322565D01*
X150586276Y-90305448D01*
X150486266Y-90272988D01*
X150377216Y-90267628D01*
X150270434Y-90287021D01*
G37*
X150270434Y-90287021D02*
X150177230Y-90328817D01*
X150108911Y-90390670D01*
X150098331Y-90406759D01*
X150079344Y-90449199D01*
X150052450Y-90522430D01*
X150021113Y-90616467D01*
X149988794Y-90721322D01*
X149986235Y-90730000D01*
X149950460Y-90848089D01*
X149919664Y-90933725D01*
X149887732Y-90995308D01*
X149848550Y-91041238D01*
X149796003Y-91079918D01*
X149723978Y-91119747D01*
X149689959Y-91137067D01*
X149523134Y-91239732D01*
X149390568Y-91361063D01*
X149294355Y-91498590D01*
X149236590Y-91649840D01*
X149230240Y-91679367D01*
X149225818Y-91726113D01*
X149222416Y-91812296D01*
X149219986Y-91935034D01*
X149218481Y-92091443D01*
X149217856Y-92278643D01*
X149218062Y-92493749D01*
X149219054Y-92733878D01*
X149220783Y-92996150D01*
X149223204Y-93277680D01*
X149226269Y-93575586D01*
X149229931Y-93886986D01*
X149234144Y-94208996D01*
X149238861Y-94538735D01*
X149244034Y-94873319D01*
X149249617Y-95209866D01*
X149255563Y-95545493D01*
X149261825Y-95877318D01*
X149268355Y-96202458D01*
X149275109Y-96518031D01*
X149282037Y-96821153D01*
X149289094Y-97108942D01*
X149296232Y-97378515D01*
X149303405Y-97626990D01*
X149310565Y-97851484D01*
X149317666Y-98049115D01*
X149324661Y-98217000D01*
X149331503Y-98352256D01*
X149338145Y-98452000D01*
X149340946Y-98483431D01*
X149372619Y-98715727D01*
X149419451Y-98911384D01*
X149484667Y-99073513D01*
X149571491Y-99205221D01*
X149683149Y-99309620D01*
X149822866Y-99389818D01*
X149993868Y-99448925D01*
X150199379Y-99490051D01*
X150409523Y-99513687D01*
X150490393Y-99518357D01*
X150607780Y-99522317D01*
X150755877Y-99525570D01*
X150928874Y-99528119D01*
X151120962Y-99529965D01*
X151326332Y-99531111D01*
X151539175Y-99531559D01*
X151753682Y-99531313D01*
X151964044Y-99530375D01*
X152164453Y-99528747D01*
X152349098Y-99526432D01*
X152512171Y-99523432D01*
X152647863Y-99519750D01*
X152750364Y-99515388D01*
X152791032Y-99512655D01*
X153035302Y-99481965D01*
X153243279Y-99432742D01*
X153417284Y-99363808D01*
X153559639Y-99273981D01*
X153672664Y-99162083D01*
X153758680Y-99026933D01*
X153762745Y-99018654D01*
X153802720Y-98917169D01*
X153841068Y-98785200D01*
X153874945Y-98634580D01*
X153901504Y-98477142D01*
X153910787Y-98402917D01*
X153916645Y-98328170D01*
X153922345Y-98214365D01*
X153927856Y-98064777D01*
X153933146Y-97882681D01*
X153938182Y-97671352D01*
X153942934Y-97434066D01*
X153947369Y-97174096D01*
X153951456Y-96894720D01*
X153955162Y-96599211D01*
X153958457Y-96290844D01*
X153961309Y-95972896D01*
X153963685Y-95648640D01*
X153965555Y-95321352D01*
X153966885Y-94994306D01*
X153967646Y-94670779D01*
X153967804Y-94354046D01*
X153967328Y-94047380D01*
X153966186Y-93754058D01*
X153964348Y-93477354D01*
X153961780Y-93220543D01*
X153961347Y-93185334D01*
X153948684Y-92179917D01*
X153262017Y-92179917D01*
X153247129Y-93502834D01*
X153243972Y-93775254D01*
X153241022Y-94008560D01*
X153238160Y-94205969D01*
X153235269Y-94370700D01*
X153232233Y-94505970D01*
X153228935Y-94614997D01*
X153225257Y-94701000D01*
X153221082Y-94767195D01*
X153216294Y-94816800D01*
X153210776Y-94853034D01*
X153204410Y-94879115D01*
X153197079Y-94898260D01*
X153196328Y-94899834D01*
X153140501Y-94969894D01*
X153045189Y-95030695D01*
X152909958Y-95082382D01*
X152734372Y-95125104D01*
X152517998Y-95159007D01*
X152387833Y-95173334D01*
X152289208Y-95180059D01*
X152157944Y-95184823D01*
X152000813Y-95187725D01*
X151824589Y-95188865D01*
X151636045Y-95188345D01*
X151441951Y-95186263D01*
X151249082Y-95182720D01*
X151064210Y-95177817D01*
X150894107Y-95171654D01*
X150745546Y-95164330D01*
X150625299Y-95155947D01*
X150540139Y-95146604D01*
X150535750Y-95145929D01*
X150434970Y-95129015D01*
X150340216Y-95111324D01*
X150265689Y-95095585D01*
X150239416Y-95089014D01*
X150147856Y-95055699D01*
X150062706Y-95011028D01*
X149995024Y-94961932D01*
X149955863Y-94915343D01*
X149953399Y-94909713D01*
X149948578Y-94876616D01*
X149943935Y-94806023D01*
X149939508Y-94702335D01*
X149935335Y-94569953D01*
X149931454Y-94413279D01*
X149927902Y-94236716D01*
X149924717Y-94044663D01*
X149921938Y-93841524D01*
X149919601Y-93631699D01*
X149917745Y-93419590D01*
X149916407Y-93209599D01*
X149915626Y-93006127D01*
X149915439Y-92813576D01*
X149915884Y-92636348D01*
X149916999Y-92478844D01*
X149918821Y-92345466D01*
X149921389Y-92240615D01*
X149924740Y-92168692D01*
X149928912Y-92134101D01*
X149929538Y-92132535D01*
X149970848Y-92086152D01*
X150041811Y-92036143D01*
X150131000Y-91989110D01*
X150226989Y-91951652D01*
X150258626Y-91942408D01*
X150405849Y-91911279D01*
X150588248Y-91885290D01*
X150798967Y-91864543D01*
X151031149Y-91849141D01*
X151277938Y-91839187D01*
X151532478Y-91834782D01*
X151787911Y-91836031D01*
X152037383Y-91843034D01*
X152274036Y-91855895D01*
X152491013Y-91874717D01*
X152681459Y-91899602D01*
X152717473Y-91905613D01*
X152878138Y-91942184D01*
X153017804Y-91991014D01*
X153129433Y-92049102D01*
X153205989Y-92113444D01*
X153206810Y-92114413D01*
X153262017Y-92179917D01*
X153948684Y-92179917D01*
X153942018Y-91650750D01*
X153890820Y-91544917D01*
X153807051Y-91414030D01*
X153688866Y-91290504D01*
X153544182Y-91181641D01*
X153424162Y-91114549D01*
X153311905Y-91065240D01*
X153192039Y-91023224D01*
X153060470Y-90987979D01*
X152913107Y-90958981D01*
X152745855Y-90935706D01*
X152554621Y-90917633D01*
X152335312Y-90904237D01*
X152083835Y-90894996D01*
X151796096Y-90889387D01*
X151650563Y-90887883D01*
X151474567Y-90886296D01*
X151312414Y-90884474D01*
X151168856Y-90882498D01*
X151048643Y-90880448D01*
X150956524Y-90878407D01*
X150897250Y-90876454D01*
X150875574Y-90874675D01*
X150866903Y-90852877D01*
X150848141Y-90799507D01*
X150822290Y-90723250D01*
X150799942Y-90655917D01*
X150759746Y-90538270D01*
X150726075Y-90453779D01*
X150694255Y-90394777D01*
X150659610Y-90353595D01*
X150617466Y-90322565D01*
X150586276Y-90305448D01*
X150486266Y-90272988D01*
X150377216Y-90267628D01*
X150270434Y-90287021D01*
G36*
X149455021Y-88126671D02*
G01*
X149413916Y-88129604D01*
X149097905Y-88174581D01*
X148794885Y-88259528D01*
X148506751Y-88383565D01*
X148235394Y-88545811D01*
X147982708Y-88745384D01*
X147878102Y-88844621D01*
X147662792Y-89088287D01*
X147485988Y-89349524D01*
X147347557Y-89628605D01*
X147247366Y-89925803D01*
X147185284Y-90241391D01*
X147179924Y-90284480D01*
X147166163Y-90460852D01*
X147170461Y-90602951D01*
X147193209Y-90714973D01*
X147227174Y-90789400D01*
X147304901Y-90877256D01*
X147407839Y-90939395D01*
X147524476Y-90971169D01*
X147643304Y-90967929D01*
X147660085Y-90964264D01*
X147759566Y-90930020D01*
X147837417Y-90878486D01*
X147896961Y-90804468D01*
X147941520Y-90702776D01*
X147974417Y-90568219D01*
X147993318Y-90443535D01*
X148010074Y-90329302D01*
X148030821Y-90216410D01*
X148052658Y-90119441D01*
X148068923Y-90063250D01*
X148174509Y-89819386D01*
X148312864Y-89600154D01*
X148480894Y-89408036D01*
X148675502Y-89245513D01*
X148893595Y-89115065D01*
X149132077Y-89019175D01*
X149387854Y-88960323D01*
X149455606Y-88951526D01*
X149549387Y-88940630D01*
X149634186Y-88929736D01*
X149696019Y-88920676D01*
X149710250Y-88918160D01*
X149821149Y-88877271D01*
X149909275Y-88806993D01*
X149972506Y-88714894D01*
X150008718Y-88608541D01*
X150015788Y-88495501D01*
X149991592Y-88383341D01*
X149934006Y-88279629D01*
X149900190Y-88241243D01*
X149836994Y-88186803D01*
X149769577Y-88150122D01*
X149689241Y-88129205D01*
X149587289Y-88122053D01*
X149455021Y-88126671D01*
G37*
X149455021Y-88126671D02*
X149413916Y-88129604D01*
X149097905Y-88174581D01*
X148794885Y-88259528D01*
X148506751Y-88383565D01*
X148235394Y-88545811D01*
X147982708Y-88745384D01*
X147878102Y-88844621D01*
X147662792Y-89088287D01*
X147485988Y-89349524D01*
X147347557Y-89628605D01*
X147247366Y-89925803D01*
X147185284Y-90241391D01*
X147179924Y-90284480D01*
X147166163Y-90460852D01*
X147170461Y-90602951D01*
X147193209Y-90714973D01*
X147227174Y-90789400D01*
X147304901Y-90877256D01*
X147407839Y-90939395D01*
X147524476Y-90971169D01*
X147643304Y-90967929D01*
X147660085Y-90964264D01*
X147759566Y-90930020D01*
X147837417Y-90878486D01*
X147896961Y-90804468D01*
X147941520Y-90702776D01*
X147974417Y-90568219D01*
X147993318Y-90443535D01*
X148010074Y-90329302D01*
X148030821Y-90216410D01*
X148052658Y-90119441D01*
X148068923Y-90063250D01*
X148174509Y-89819386D01*
X148312864Y-89600154D01*
X148480894Y-89408036D01*
X148675502Y-89245513D01*
X148893595Y-89115065D01*
X149132077Y-89019175D01*
X149387854Y-88960323D01*
X149455606Y-88951526D01*
X149549387Y-88940630D01*
X149634186Y-88929736D01*
X149696019Y-88920676D01*
X149710250Y-88918160D01*
X149821149Y-88877271D01*
X149909275Y-88806993D01*
X149972506Y-88714894D01*
X150008718Y-88608541D01*
X150015788Y-88495501D01*
X149991592Y-88383341D01*
X149934006Y-88279629D01*
X149900190Y-88241243D01*
X149836994Y-88186803D01*
X149769577Y-88150122D01*
X149689241Y-88129205D01*
X149587289Y-88122053D01*
X149455021Y-88126671D01*
G36*
X149374044Y-86076599D02*
G01*
X149197062Y-86088621D01*
X149007249Y-86110448D01*
X148810199Y-86141779D01*
X148611506Y-86182317D01*
X148524916Y-86203014D01*
X148106217Y-86329209D01*
X147706574Y-86492638D01*
X147327697Y-86691918D01*
X146971296Y-86925666D01*
X146639081Y-87192501D01*
X146332763Y-87491040D01*
X146054052Y-87819899D01*
X145804657Y-88177697D01*
X145586290Y-88563051D01*
X145572938Y-88589566D01*
X145438450Y-88893569D01*
X145324180Y-89223012D01*
X145232989Y-89566316D01*
X145167737Y-89911899D01*
X145131285Y-90248181D01*
X145124846Y-90403606D01*
X145123736Y-90516104D01*
X145125837Y-90596620D01*
X145132412Y-90655460D01*
X145144727Y-90702931D01*
X145164046Y-90749338D01*
X145168401Y-90758447D01*
X145235890Y-90852037D01*
X145331092Y-90922235D01*
X145443801Y-90964468D01*
X145563810Y-90974166D01*
X145627947Y-90964292D01*
X145731430Y-90919200D01*
X145823274Y-90842280D01*
X145869539Y-90781236D01*
X145889074Y-90742853D01*
X145904721Y-90693692D01*
X145917922Y-90626140D01*
X145930118Y-90532586D01*
X145942751Y-90405415D01*
X145944614Y-90384740D01*
X145960182Y-90218881D01*
X145974873Y-90084800D01*
X145990311Y-89972016D01*
X146008120Y-89870047D01*
X146029924Y-89768414D01*
X146057347Y-89656633D01*
X146057552Y-89655833D01*
X146173133Y-89287605D01*
X146325778Y-88936826D01*
X146513041Y-88605824D01*
X146732473Y-88296925D01*
X146981628Y-88012455D01*
X147258057Y-87754740D01*
X147559313Y-87526107D01*
X147882949Y-87328883D01*
X148226517Y-87165393D01*
X148587569Y-87037964D01*
X148890864Y-86962837D01*
X149002447Y-86943309D01*
X149137904Y-86924097D01*
X149278824Y-86907614D01*
X149388280Y-86897618D01*
X149535290Y-86885170D01*
X149647187Y-86871919D01*
X149731178Y-86855946D01*
X149794469Y-86835335D01*
X149844267Y-86808168D01*
X149887779Y-86772528D01*
X149898798Y-86761791D01*
X149972575Y-86663142D01*
X150009164Y-86549516D01*
X150010774Y-86419682D01*
X149981298Y-86298275D01*
X149917985Y-86199230D01*
X149841807Y-86132542D01*
X149772078Y-86102353D01*
X149667146Y-86083166D01*
X149532604Y-86074681D01*
X149374044Y-86076599D01*
G37*
X149374044Y-86076599D02*
X149197062Y-86088621D01*
X149007249Y-86110448D01*
X148810199Y-86141779D01*
X148611506Y-86182317D01*
X148524916Y-86203014D01*
X148106217Y-86329209D01*
X147706574Y-86492638D01*
X147327697Y-86691918D01*
X146971296Y-86925666D01*
X146639081Y-87192501D01*
X146332763Y-87491040D01*
X146054052Y-87819899D01*
X145804657Y-88177697D01*
X145586290Y-88563051D01*
X145572938Y-88589566D01*
X145438450Y-88893569D01*
X145324180Y-89223012D01*
X145232989Y-89566316D01*
X145167737Y-89911899D01*
X145131285Y-90248181D01*
X145124846Y-90403606D01*
X145123736Y-90516104D01*
X145125837Y-90596620D01*
X145132412Y-90655460D01*
X145144727Y-90702931D01*
X145164046Y-90749338D01*
X145168401Y-90758447D01*
X145235890Y-90852037D01*
X145331092Y-90922235D01*
X145443801Y-90964468D01*
X145563810Y-90974166D01*
X145627947Y-90964292D01*
X145731430Y-90919200D01*
X145823274Y-90842280D01*
X145869539Y-90781236D01*
X145889074Y-90742853D01*
X145904721Y-90693692D01*
X145917922Y-90626140D01*
X145930118Y-90532586D01*
X145942751Y-90405415D01*
X145944614Y-90384740D01*
X145960182Y-90218881D01*
X145974873Y-90084800D01*
X145990311Y-89972016D01*
X146008120Y-89870047D01*
X146029924Y-89768414D01*
X146057347Y-89656633D01*
X146057552Y-89655833D01*
X146173133Y-89287605D01*
X146325778Y-88936826D01*
X146513041Y-88605824D01*
X146732473Y-88296925D01*
X146981628Y-88012455D01*
X147258057Y-87754740D01*
X147559313Y-87526107D01*
X147882949Y-87328883D01*
X148226517Y-87165393D01*
X148587569Y-87037964D01*
X148890864Y-86962837D01*
X149002447Y-86943309D01*
X149137904Y-86924097D01*
X149278824Y-86907614D01*
X149388280Y-86897618D01*
X149535290Y-86885170D01*
X149647187Y-86871919D01*
X149731178Y-86855946D01*
X149794469Y-86835335D01*
X149844267Y-86808168D01*
X149887779Y-86772528D01*
X149898798Y-86761791D01*
X149972575Y-86663142D01*
X150009164Y-86549516D01*
X150010774Y-86419682D01*
X149981298Y-86298275D01*
X149917985Y-86199230D01*
X149841807Y-86132542D01*
X149772078Y-86102353D01*
X149667146Y-86083166D01*
X149532604Y-86074681D01*
X149374044Y-86076599D01*
G36*
X149394353Y-84035669D02*
G01*
X148906958Y-84063230D01*
X148420287Y-84131866D01*
X147937311Y-84240380D01*
X147461003Y-84387571D01*
X146994333Y-84572243D01*
X146540273Y-84793196D01*
X146101797Y-85049232D01*
X145681874Y-85339152D01*
X145283478Y-85661760D01*
X145218093Y-85719778D01*
X144862904Y-86066165D01*
X144535598Y-86440217D01*
X144237664Y-86838707D01*
X143970594Y-87258405D01*
X143735878Y-87696084D01*
X143535007Y-88148514D01*
X143369471Y-88612467D01*
X143240762Y-89084714D01*
X143150369Y-89562028D01*
X143099784Y-90041179D01*
X143089132Y-90330909D01*
X143085083Y-90725567D01*
X143150827Y-90807159D01*
X143249686Y-90900669D01*
X143363402Y-90957581D01*
X143486250Y-90975773D01*
X143574781Y-90964292D01*
X143675872Y-90921021D01*
X143766678Y-90848853D01*
X143835505Y-90758923D01*
X143865362Y-90687667D01*
X143871453Y-90648858D01*
X143879011Y-90576393D01*
X143887278Y-90478893D01*
X143895494Y-90364977D01*
X143899859Y-90296084D01*
X143910276Y-90152364D01*
X143924491Y-89996807D01*
X143940800Y-89846192D01*
X143957497Y-89717296D01*
X143961160Y-89692834D01*
X144055654Y-89216993D01*
X144188556Y-88756222D01*
X144358099Y-88312280D01*
X144562516Y-87886923D01*
X144800041Y-87481907D01*
X145068907Y-87098991D01*
X145367347Y-86739931D01*
X145693595Y-86406485D01*
X146045883Y-86100408D01*
X146422444Y-85823460D01*
X146821513Y-85577396D01*
X147241322Y-85363974D01*
X147680105Y-85184950D01*
X148136095Y-85042083D01*
X148607524Y-84937129D01*
X148769698Y-84910589D01*
X148900841Y-84893254D01*
X149056165Y-84876121D01*
X149217549Y-84861011D01*
X149366871Y-84849747D01*
X149387384Y-84848485D01*
X149538496Y-84837909D01*
X149654539Y-84824894D01*
X149742777Y-84807086D01*
X149810476Y-84782132D01*
X149864900Y-84747676D01*
X149913313Y-84701366D01*
X149940628Y-84669227D01*
X149981396Y-84608521D01*
X150003481Y-84542854D01*
X150013006Y-84465521D01*
X150004904Y-84329278D01*
X149959771Y-84213051D01*
X149878040Y-84117793D01*
X149843400Y-84091321D01*
X149755789Y-84030750D01*
X149394353Y-84035669D01*
G37*
X149394353Y-84035669D02*
X148906958Y-84063230D01*
X148420287Y-84131866D01*
X147937311Y-84240380D01*
X147461003Y-84387571D01*
X146994333Y-84572243D01*
X146540273Y-84793196D01*
X146101797Y-85049232D01*
X145681874Y-85339152D01*
X145283478Y-85661760D01*
X145218093Y-85719778D01*
X144862904Y-86066165D01*
X144535598Y-86440217D01*
X144237664Y-86838707D01*
X143970594Y-87258405D01*
X143735878Y-87696084D01*
X143535007Y-88148514D01*
X143369471Y-88612467D01*
X143240762Y-89084714D01*
X143150369Y-89562028D01*
X143099784Y-90041179D01*
X143089132Y-90330909D01*
X143085083Y-90725567D01*
X143150827Y-90807159D01*
X143249686Y-90900669D01*
X143363402Y-90957581D01*
X143486250Y-90975773D01*
X143574781Y-90964292D01*
X143675872Y-90921021D01*
X143766678Y-90848853D01*
X143835505Y-90758923D01*
X143865362Y-90687667D01*
X143871453Y-90648858D01*
X143879011Y-90576393D01*
X143887278Y-90478893D01*
X143895494Y-90364977D01*
X143899859Y-90296084D01*
X143910276Y-90152364D01*
X143924491Y-89996807D01*
X143940800Y-89846192D01*
X143957497Y-89717296D01*
X143961160Y-89692834D01*
X144055654Y-89216993D01*
X144188556Y-88756222D01*
X144358099Y-88312280D01*
X144562516Y-87886923D01*
X144800041Y-87481907D01*
X145068907Y-87098991D01*
X145367347Y-86739931D01*
X145693595Y-86406485D01*
X146045883Y-86100408D01*
X146422444Y-85823460D01*
X146821513Y-85577396D01*
X147241322Y-85363974D01*
X147680105Y-85184950D01*
X148136095Y-85042083D01*
X148607524Y-84937129D01*
X148769698Y-84910589D01*
X148900841Y-84893254D01*
X149056165Y-84876121D01*
X149217549Y-84861011D01*
X149366871Y-84849747D01*
X149387384Y-84848485D01*
X149538496Y-84837909D01*
X149654539Y-84824894D01*
X149742777Y-84807086D01*
X149810476Y-84782132D01*
X149864900Y-84747676D01*
X149913313Y-84701366D01*
X149940628Y-84669227D01*
X149981396Y-84608521D01*
X150003481Y-84542854D01*
X150013006Y-84465521D01*
X150004904Y-84329278D01*
X149959771Y-84213051D01*
X149878040Y-84117793D01*
X149843400Y-84091321D01*
X149755789Y-84030750D01*
X149394353Y-84035669D01*
G36*
X140146090Y-91742348D02*
G01*
X140067546Y-91742778D01*
X140010702Y-91743942D01*
X139971895Y-91746207D01*
X139947462Y-91749940D01*
X139933738Y-91755506D01*
X139927060Y-91763273D01*
X139923764Y-91773605D01*
X139923444Y-91774943D01*
X139918438Y-91799079D01*
X139909171Y-91846701D01*
X139896608Y-91912741D01*
X139881713Y-91992128D01*
X139865449Y-92079796D01*
X139864881Y-92082875D01*
X139848590Y-92168789D01*
X139833348Y-92244696D01*
X139820139Y-92306045D01*
X139809946Y-92348282D01*
X139803752Y-92366855D01*
X139803457Y-92367184D01*
X139785212Y-92376253D01*
X139747595Y-92391367D01*
X139698729Y-92409262D01*
X139698457Y-92409358D01*
X139636907Y-92432493D01*
X139564343Y-92461965D01*
X139495943Y-92491597D01*
X139492706Y-92493062D01*
X139381298Y-92543626D01*
X139134601Y-92375160D01*
X139058923Y-92323803D01*
X138990369Y-92277889D01*
X138932912Y-92240030D01*
X138890524Y-92212837D01*
X138867175Y-92198921D01*
X138864958Y-92197889D01*
X138847990Y-92202484D01*
X138816299Y-92224655D01*
X138768648Y-92265447D01*
X138703802Y-92325905D01*
X138637603Y-92390227D01*
X138573786Y-92453612D01*
X138516671Y-92511451D01*
X138469695Y-92560175D01*
X138436297Y-92596210D01*
X138419915Y-92615984D01*
X138419306Y-92617002D01*
X138417495Y-92630572D01*
X138424317Y-92652733D01*
X138441460Y-92686478D01*
X138470607Y-92734800D01*
X138513445Y-92800692D01*
X138570552Y-92885517D01*
X138621234Y-92960177D01*
X138666539Y-93027140D01*
X138703850Y-93082516D01*
X138730548Y-93122420D01*
X138744015Y-93142962D01*
X138744863Y-93144356D01*
X138743219Y-93164038D01*
X138730755Y-93202293D01*
X138709952Y-93251889D01*
X138702538Y-93267728D01*
X138670186Y-93338290D01*
X138635672Y-93418353D01*
X138607635Y-93487629D01*
X138587432Y-93539045D01*
X138571385Y-93578119D01*
X138562112Y-93598541D01*
X138560959Y-93600114D01*
X138543904Y-93602721D01*
X138503702Y-93609863D01*
X138445698Y-93620523D01*
X138375237Y-93633685D01*
X138297665Y-93648333D01*
X138218328Y-93663449D01*
X138142569Y-93678018D01*
X138075736Y-93691022D01*
X138023172Y-93701445D01*
X137990224Y-93708270D01*
X137982143Y-93710199D01*
X137973795Y-93714962D01*
X137967494Y-93725718D01*
X137962955Y-93746098D01*
X137959896Y-93779734D01*
X137958033Y-93830255D01*
X137957082Y-93901292D01*
X137956760Y-93996476D01*
X137956743Y-94035492D01*
X137956743Y-94352799D01*
X138032943Y-94367839D01*
X138075337Y-94375995D01*
X138138600Y-94387899D01*
X138215038Y-94402116D01*
X138296957Y-94417210D01*
X138319600Y-94421355D01*
X138395194Y-94436053D01*
X138461047Y-94450505D01*
X138511634Y-94463375D01*
X138541426Y-94473322D01*
X138546388Y-94476287D01*
X138558574Y-94497283D01*
X138576047Y-94537967D01*
X138595423Y-94590322D01*
X138599266Y-94601600D01*
X138624661Y-94671523D01*
X138656183Y-94750418D01*
X138687031Y-94821266D01*
X138687183Y-94821595D01*
X138738553Y-94932733D01*
X138569601Y-95181253D01*
X138400648Y-95429772D01*
X138617571Y-95647058D01*
X138683181Y-95711726D01*
X138743021Y-95768733D01*
X138793733Y-95815033D01*
X138831954Y-95847584D01*
X138854325Y-95863343D01*
X138857534Y-95864343D01*
X138876374Y-95856469D01*
X138914820Y-95834578D01*
X138968670Y-95801267D01*
X139033724Y-95759131D01*
X139104060Y-95711943D01*
X139175445Y-95663810D01*
X139239092Y-95621928D01*
X139290959Y-95588871D01*
X139327005Y-95567218D01*
X139343133Y-95559543D01*
X139362811Y-95566037D01*
X139400125Y-95583150D01*
X139447379Y-95607326D01*
X139452388Y-95610013D01*
X139516023Y-95641927D01*
X139559659Y-95657579D01*
X139586798Y-95657745D01*
X139600943Y-95643204D01*
X139601025Y-95643000D01*
X139608095Y-95625779D01*
X139624958Y-95584899D01*
X139650305Y-95523525D01*
X139682829Y-95444819D01*
X139721222Y-95351947D01*
X139764178Y-95248072D01*
X139805778Y-95147502D01*
X139851496Y-95036516D01*
X139893474Y-94933703D01*
X139930452Y-94842215D01*
X139961173Y-94765201D01*
X139984378Y-94705815D01*
X139998810Y-94667209D01*
X140003257Y-94652800D01*
X139992104Y-94636272D01*
X139962931Y-94609930D01*
X139924029Y-94580887D01*
X139813243Y-94489039D01*
X139726649Y-94383759D01*
X139665284Y-94267266D01*
X139630185Y-94141776D01*
X139622392Y-94009507D01*
X139628057Y-93948457D01*
X139658922Y-93821795D01*
X139712080Y-93709941D01*
X139784233Y-93614001D01*
X139872083Y-93535076D01*
X139972335Y-93474270D01*
X140081690Y-93432687D01*
X140196853Y-93411428D01*
X140314525Y-93411599D01*
X140431410Y-93434301D01*
X140544211Y-93480638D01*
X140649631Y-93551713D01*
X140693632Y-93591911D01*
X140778021Y-93695129D01*
X140836778Y-93807925D01*
X140870296Y-93927010D01*
X140878965Y-94049095D01*
X140863177Y-94170893D01*
X140823322Y-94289116D01*
X140759793Y-94400475D01*
X140672979Y-94501684D01*
X140575971Y-94580887D01*
X140535563Y-94611162D01*
X140507018Y-94637219D01*
X140496743Y-94652825D01*
X140502123Y-94669843D01*
X140517425Y-94710500D01*
X140541388Y-94771642D01*
X140572756Y-94850119D01*
X140610268Y-94942780D01*
X140652667Y-95046472D01*
X140694337Y-95147526D01*
X140740310Y-95258607D01*
X140782893Y-95361541D01*
X140820779Y-95453165D01*
X140852660Y-95530316D01*
X140877229Y-95589831D01*
X140893180Y-95628544D01*
X140899090Y-95643000D01*
X140913052Y-95657685D01*
X140940060Y-95657642D01*
X140983587Y-95642099D01*
X141047110Y-95610284D01*
X141047612Y-95610013D01*
X141095440Y-95585323D01*
X141134103Y-95567338D01*
X141155905Y-95559614D01*
X141156867Y-95559543D01*
X141173279Y-95567378D01*
X141209513Y-95589165D01*
X141261526Y-95622328D01*
X141325275Y-95664291D01*
X141395940Y-95711943D01*
X141467884Y-95760191D01*
X141532726Y-95802151D01*
X141586265Y-95835227D01*
X141624303Y-95856821D01*
X141642467Y-95864343D01*
X141659192Y-95854457D01*
X141692820Y-95826826D01*
X141739990Y-95784495D01*
X141797342Y-95730505D01*
X141861516Y-95667899D01*
X141882503Y-95646983D01*
X142099501Y-95429623D01*
X141934332Y-95187220D01*
X141884136Y-95112781D01*
X141840081Y-95045972D01*
X141804638Y-94990665D01*
X141780281Y-94950729D01*
X141769478Y-94930036D01*
X141769162Y-94928563D01*
X141774857Y-94909058D01*
X141790174Y-94869822D01*
X141812463Y-94817430D01*
X141828107Y-94782355D01*
X141857359Y-94715201D01*
X141884906Y-94647358D01*
X141906263Y-94590034D01*
X141912065Y-94572572D01*
X141928548Y-94525938D01*
X141944660Y-94489905D01*
X141953510Y-94476287D01*
X141973040Y-94467952D01*
X142015666Y-94456137D01*
X142075855Y-94442181D01*
X142148078Y-94427422D01*
X142180400Y-94421355D01*
X142262478Y-94406273D01*
X142341205Y-94391669D01*
X142408891Y-94378980D01*
X142457840Y-94369642D01*
X142467057Y-94367839D01*
X142543257Y-94352799D01*
X142543257Y-94035492D01*
X142543086Y-93931154D01*
X142542384Y-93852213D01*
X142540866Y-93795038D01*
X142538251Y-93755999D01*
X142534254Y-93731465D01*
X142528591Y-93717805D01*
X142520980Y-93711389D01*
X142517857Y-93710199D01*
X142499022Y-93705980D01*
X142457412Y-93697562D01*
X142398370Y-93685961D01*
X142327243Y-93672195D01*
X142249375Y-93657280D01*
X142170113Y-93642232D01*
X142094802Y-93628069D01*
X142028787Y-93615806D01*
X141977413Y-93606461D01*
X141946025Y-93601050D01*
X141939041Y-93600114D01*
X141932715Y-93587596D01*
X141918710Y-93554246D01*
X141899645Y-93506377D01*
X141892366Y-93487629D01*
X141863004Y-93415195D01*
X141828429Y-93335170D01*
X141797463Y-93267728D01*
X141774677Y-93216159D01*
X141759518Y-93173785D01*
X141754458Y-93147834D01*
X141755264Y-93144356D01*
X141765959Y-93127936D01*
X141790380Y-93091417D01*
X141825905Y-93038687D01*
X141869913Y-92973635D01*
X141919783Y-92900151D01*
X141929644Y-92885645D01*
X141987508Y-92799704D01*
X142030044Y-92734261D01*
X142058946Y-92686304D01*
X142075910Y-92652820D01*
X142082633Y-92630795D01*
X142080810Y-92617217D01*
X142080764Y-92617131D01*
X142066414Y-92599297D01*
X142034677Y-92564817D01*
X141988990Y-92517268D01*
X141932796Y-92460222D01*
X141869532Y-92397255D01*
X141862398Y-92390227D01*
X141782670Y-92313020D01*
X141721143Y-92256330D01*
X141676579Y-92219110D01*
X141647743Y-92200315D01*
X141635042Y-92197889D01*
X141616506Y-92208471D01*
X141578039Y-92232916D01*
X141523614Y-92268612D01*
X141457202Y-92312947D01*
X141382775Y-92363311D01*
X141365399Y-92375160D01*
X141118703Y-92543626D01*
X141007294Y-92493062D01*
X140939543Y-92463595D01*
X140866817Y-92433959D01*
X140804297Y-92410330D01*
X140801543Y-92409358D01*
X140752640Y-92391457D01*
X140714943Y-92376320D01*
X140696575Y-92367210D01*
X140696544Y-92367184D01*
X140690715Y-92350717D01*
X140680808Y-92310219D01*
X140667805Y-92250242D01*
X140652691Y-92175340D01*
X140636448Y-92090064D01*
X140635119Y-92082875D01*
X140618825Y-91995014D01*
X140603867Y-91915260D01*
X140591209Y-91848681D01*
X140581814Y-91800347D01*
X140576646Y-91775325D01*
X140576556Y-91774943D01*
X140573411Y-91764299D01*
X140567296Y-91756262D01*
X140554547Y-91750467D01*
X140531500Y-91746547D01*
X140494491Y-91744135D01*
X140439856Y-91742865D01*
X140363933Y-91742371D01*
X140263056Y-91742286D01*
X140250000Y-91742286D01*
X140146090Y-91742348D01*
G37*
X140146090Y-91742348D02*
X140067546Y-91742778D01*
X140010702Y-91743942D01*
X139971895Y-91746207D01*
X139947462Y-91749940D01*
X139933738Y-91755506D01*
X139927060Y-91763273D01*
X139923764Y-91773605D01*
X139923444Y-91774943D01*
X139918438Y-91799079D01*
X139909171Y-91846701D01*
X139896608Y-91912741D01*
X139881713Y-91992128D01*
X139865449Y-92079796D01*
X139864881Y-92082875D01*
X139848590Y-92168789D01*
X139833348Y-92244696D01*
X139820139Y-92306045D01*
X139809946Y-92348282D01*
X139803752Y-92366855D01*
X139803457Y-92367184D01*
X139785212Y-92376253D01*
X139747595Y-92391367D01*
X139698729Y-92409262D01*
X139698457Y-92409358D01*
X139636907Y-92432493D01*
X139564343Y-92461965D01*
X139495943Y-92491597D01*
X139492706Y-92493062D01*
X139381298Y-92543626D01*
X139134601Y-92375160D01*
X139058923Y-92323803D01*
X138990369Y-92277889D01*
X138932912Y-92240030D01*
X138890524Y-92212837D01*
X138867175Y-92198921D01*
X138864958Y-92197889D01*
X138847990Y-92202484D01*
X138816299Y-92224655D01*
X138768648Y-92265447D01*
X138703802Y-92325905D01*
X138637603Y-92390227D01*
X138573786Y-92453612D01*
X138516671Y-92511451D01*
X138469695Y-92560175D01*
X138436297Y-92596210D01*
X138419915Y-92615984D01*
X138419306Y-92617002D01*
X138417495Y-92630572D01*
X138424317Y-92652733D01*
X138441460Y-92686478D01*
X138470607Y-92734800D01*
X138513445Y-92800692D01*
X138570552Y-92885517D01*
X138621234Y-92960177D01*
X138666539Y-93027140D01*
X138703850Y-93082516D01*
X138730548Y-93122420D01*
X138744015Y-93142962D01*
X138744863Y-93144356D01*
X138743219Y-93164038D01*
X138730755Y-93202293D01*
X138709952Y-93251889D01*
X138702538Y-93267728D01*
X138670186Y-93338290D01*
X138635672Y-93418353D01*
X138607635Y-93487629D01*
X138587432Y-93539045D01*
X138571385Y-93578119D01*
X138562112Y-93598541D01*
X138560959Y-93600114D01*
X138543904Y-93602721D01*
X138503702Y-93609863D01*
X138445698Y-93620523D01*
X138375237Y-93633685D01*
X138297665Y-93648333D01*
X138218328Y-93663449D01*
X138142569Y-93678018D01*
X138075736Y-93691022D01*
X138023172Y-93701445D01*
X137990224Y-93708270D01*
X137982143Y-93710199D01*
X137973795Y-93714962D01*
X137967494Y-93725718D01*
X137962955Y-93746098D01*
X137959896Y-93779734D01*
X137958033Y-93830255D01*
X137957082Y-93901292D01*
X137956760Y-93996476D01*
X137956743Y-94035492D01*
X137956743Y-94352799D01*
X138032943Y-94367839D01*
X138075337Y-94375995D01*
X138138600Y-94387899D01*
X138215038Y-94402116D01*
X138296957Y-94417210D01*
X138319600Y-94421355D01*
X138395194Y-94436053D01*
X138461047Y-94450505D01*
X138511634Y-94463375D01*
X138541426Y-94473322D01*
X138546388Y-94476287D01*
X138558574Y-94497283D01*
X138576047Y-94537967D01*
X138595423Y-94590322D01*
X138599266Y-94601600D01*
X138624661Y-94671523D01*
X138656183Y-94750418D01*
X138687031Y-94821266D01*
X138687183Y-94821595D01*
X138738553Y-94932733D01*
X138569601Y-95181253D01*
X138400648Y-95429772D01*
X138617571Y-95647058D01*
X138683181Y-95711726D01*
X138743021Y-95768733D01*
X138793733Y-95815033D01*
X138831954Y-95847584D01*
X138854325Y-95863343D01*
X138857534Y-95864343D01*
X138876374Y-95856469D01*
X138914820Y-95834578D01*
X138968670Y-95801267D01*
X139033724Y-95759131D01*
X139104060Y-95711943D01*
X139175445Y-95663810D01*
X139239092Y-95621928D01*
X139290959Y-95588871D01*
X139327005Y-95567218D01*
X139343133Y-95559543D01*
X139362811Y-95566037D01*
X139400125Y-95583150D01*
X139447379Y-95607326D01*
X139452388Y-95610013D01*
X139516023Y-95641927D01*
X139559659Y-95657579D01*
X139586798Y-95657745D01*
X139600943Y-95643204D01*
X139601025Y-95643000D01*
X139608095Y-95625779D01*
X139624958Y-95584899D01*
X139650305Y-95523525D01*
X139682829Y-95444819D01*
X139721222Y-95351947D01*
X139764178Y-95248072D01*
X139805778Y-95147502D01*
X139851496Y-95036516D01*
X139893474Y-94933703D01*
X139930452Y-94842215D01*
X139961173Y-94765201D01*
X139984378Y-94705815D01*
X139998810Y-94667209D01*
X140003257Y-94652800D01*
X139992104Y-94636272D01*
X139962931Y-94609930D01*
X139924029Y-94580887D01*
X139813243Y-94489039D01*
X139726649Y-94383759D01*
X139665284Y-94267266D01*
X139630185Y-94141776D01*
X139622392Y-94009507D01*
X139628057Y-93948457D01*
X139658922Y-93821795D01*
X139712080Y-93709941D01*
X139784233Y-93614001D01*
X139872083Y-93535076D01*
X139972335Y-93474270D01*
X140081690Y-93432687D01*
X140196853Y-93411428D01*
X140314525Y-93411599D01*
X140431410Y-93434301D01*
X140544211Y-93480638D01*
X140649631Y-93551713D01*
X140693632Y-93591911D01*
X140778021Y-93695129D01*
X140836778Y-93807925D01*
X140870296Y-93927010D01*
X140878965Y-94049095D01*
X140863177Y-94170893D01*
X140823322Y-94289116D01*
X140759793Y-94400475D01*
X140672979Y-94501684D01*
X140575971Y-94580887D01*
X140535563Y-94611162D01*
X140507018Y-94637219D01*
X140496743Y-94652825D01*
X140502123Y-94669843D01*
X140517425Y-94710500D01*
X140541388Y-94771642D01*
X140572756Y-94850119D01*
X140610268Y-94942780D01*
X140652667Y-95046472D01*
X140694337Y-95147526D01*
X140740310Y-95258607D01*
X140782893Y-95361541D01*
X140820779Y-95453165D01*
X140852660Y-95530316D01*
X140877229Y-95589831D01*
X140893180Y-95628544D01*
X140899090Y-95643000D01*
X140913052Y-95657685D01*
X140940060Y-95657642D01*
X140983587Y-95642099D01*
X141047110Y-95610284D01*
X141047612Y-95610013D01*
X141095440Y-95585323D01*
X141134103Y-95567338D01*
X141155905Y-95559614D01*
X141156867Y-95559543D01*
X141173279Y-95567378D01*
X141209513Y-95589165D01*
X141261526Y-95622328D01*
X141325275Y-95664291D01*
X141395940Y-95711943D01*
X141467884Y-95760191D01*
X141532726Y-95802151D01*
X141586265Y-95835227D01*
X141624303Y-95856821D01*
X141642467Y-95864343D01*
X141659192Y-95854457D01*
X141692820Y-95826826D01*
X141739990Y-95784495D01*
X141797342Y-95730505D01*
X141861516Y-95667899D01*
X141882503Y-95646983D01*
X142099501Y-95429623D01*
X141934332Y-95187220D01*
X141884136Y-95112781D01*
X141840081Y-95045972D01*
X141804638Y-94990665D01*
X141780281Y-94950729D01*
X141769478Y-94930036D01*
X141769162Y-94928563D01*
X141774857Y-94909058D01*
X141790174Y-94869822D01*
X141812463Y-94817430D01*
X141828107Y-94782355D01*
X141857359Y-94715201D01*
X141884906Y-94647358D01*
X141906263Y-94590034D01*
X141912065Y-94572572D01*
X141928548Y-94525938D01*
X141944660Y-94489905D01*
X141953510Y-94476287D01*
X141973040Y-94467952D01*
X142015666Y-94456137D01*
X142075855Y-94442181D01*
X142148078Y-94427422D01*
X142180400Y-94421355D01*
X142262478Y-94406273D01*
X142341205Y-94391669D01*
X142408891Y-94378980D01*
X142457840Y-94369642D01*
X142467057Y-94367839D01*
X142543257Y-94352799D01*
X142543257Y-94035492D01*
X142543086Y-93931154D01*
X142542384Y-93852213D01*
X142540866Y-93795038D01*
X142538251Y-93755999D01*
X142534254Y-93731465D01*
X142528591Y-93717805D01*
X142520980Y-93711389D01*
X142517857Y-93710199D01*
X142499022Y-93705980D01*
X142457412Y-93697562D01*
X142398370Y-93685961D01*
X142327243Y-93672195D01*
X142249375Y-93657280D01*
X142170113Y-93642232D01*
X142094802Y-93628069D01*
X142028787Y-93615806D01*
X141977413Y-93606461D01*
X141946025Y-93601050D01*
X141939041Y-93600114D01*
X141932715Y-93587596D01*
X141918710Y-93554246D01*
X141899645Y-93506377D01*
X141892366Y-93487629D01*
X141863004Y-93415195D01*
X141828429Y-93335170D01*
X141797463Y-93267728D01*
X141774677Y-93216159D01*
X141759518Y-93173785D01*
X141754458Y-93147834D01*
X141755264Y-93144356D01*
X141765959Y-93127936D01*
X141790380Y-93091417D01*
X141825905Y-93038687D01*
X141869913Y-92973635D01*
X141919783Y-92900151D01*
X141929644Y-92885645D01*
X141987508Y-92799704D01*
X142030044Y-92734261D01*
X142058946Y-92686304D01*
X142075910Y-92652820D01*
X142082633Y-92630795D01*
X142080810Y-92617217D01*
X142080764Y-92617131D01*
X142066414Y-92599297D01*
X142034677Y-92564817D01*
X141988990Y-92517268D01*
X141932796Y-92460222D01*
X141869532Y-92397255D01*
X141862398Y-92390227D01*
X141782670Y-92313020D01*
X141721143Y-92256330D01*
X141676579Y-92219110D01*
X141647743Y-92200315D01*
X141635042Y-92197889D01*
X141616506Y-92208471D01*
X141578039Y-92232916D01*
X141523614Y-92268612D01*
X141457202Y-92312947D01*
X141382775Y-92363311D01*
X141365399Y-92375160D01*
X141118703Y-92543626D01*
X141007294Y-92493062D01*
X140939543Y-92463595D01*
X140866817Y-92433959D01*
X140804297Y-92410330D01*
X140801543Y-92409358D01*
X140752640Y-92391457D01*
X140714943Y-92376320D01*
X140696575Y-92367210D01*
X140696544Y-92367184D01*
X140690715Y-92350717D01*
X140680808Y-92310219D01*
X140667805Y-92250242D01*
X140652691Y-92175340D01*
X140636448Y-92090064D01*
X140635119Y-92082875D01*
X140618825Y-91995014D01*
X140603867Y-91915260D01*
X140591209Y-91848681D01*
X140581814Y-91800347D01*
X140576646Y-91775325D01*
X140576556Y-91774943D01*
X140573411Y-91764299D01*
X140567296Y-91756262D01*
X140554547Y-91750467D01*
X140531500Y-91746547D01*
X140494491Y-91744135D01*
X140439856Y-91742865D01*
X140363933Y-91742371D01*
X140263056Y-91742286D01*
X140250000Y-91742286D01*
X140146090Y-91742348D01*
G36*
X137096405Y-96466966D02*
G01*
X137038979Y-96504497D01*
X137011281Y-96538096D01*
X136989338Y-96599064D01*
X136987595Y-96647308D01*
X136991543Y-96711816D01*
X137140314Y-96776934D01*
X137212651Y-96810202D01*
X137259916Y-96836964D01*
X137284493Y-96860144D01*
X137288763Y-96882667D01*
X137275111Y-96907455D01*
X137260057Y-96923886D01*
X137216254Y-96950235D01*
X137168611Y-96952081D01*
X137124855Y-96931546D01*
X137092711Y-96890752D01*
X137086962Y-96876347D01*
X137059424Y-96831356D01*
X137027742Y-96812182D01*
X136984286Y-96795779D01*
X136984286Y-96857966D01*
X136988128Y-96900283D01*
X137003177Y-96935969D01*
X137034720Y-96976943D01*
X137039408Y-96982267D01*
X137074494Y-97018720D01*
X137104653Y-97038283D01*
X137142385Y-97047283D01*
X137173665Y-97050230D01*
X137229615Y-97050965D01*
X137269445Y-97041660D01*
X137294292Y-97027846D01*
X137333344Y-96997467D01*
X137360375Y-96964613D01*
X137377483Y-96923294D01*
X137386762Y-96867521D01*
X137390307Y-96791305D01*
X137390590Y-96752622D01*
X137389628Y-96706247D01*
X137301993Y-96706247D01*
X137300977Y-96731126D01*
X137298444Y-96735200D01*
X137281726Y-96729665D01*
X137245751Y-96715017D01*
X137197669Y-96694190D01*
X137187614Y-96689714D01*
X137126848Y-96658814D01*
X137093368Y-96631657D01*
X137086010Y-96606220D01*
X137103609Y-96580481D01*
X137118144Y-96569109D01*
X137170590Y-96546364D01*
X137219678Y-96550122D01*
X137260773Y-96577884D01*
X137289242Y-96627152D01*
X137298369Y-96666257D01*
X137301993Y-96706247D01*
X137389628Y-96706247D01*
X137388715Y-96662249D01*
X137381804Y-96595384D01*
X137368116Y-96546695D01*
X137345904Y-96510849D01*
X137313426Y-96482513D01*
X137299267Y-96473355D01*
X137234947Y-96449507D01*
X137164527Y-96448006D01*
X137096405Y-96466966D01*
G37*
X137096405Y-96466966D02*
X137038979Y-96504497D01*
X137011281Y-96538096D01*
X136989338Y-96599064D01*
X136987595Y-96647308D01*
X136991543Y-96711816D01*
X137140314Y-96776934D01*
X137212651Y-96810202D01*
X137259916Y-96836964D01*
X137284493Y-96860144D01*
X137288763Y-96882667D01*
X137275111Y-96907455D01*
X137260057Y-96923886D01*
X137216254Y-96950235D01*
X137168611Y-96952081D01*
X137124855Y-96931546D01*
X137092711Y-96890752D01*
X137086962Y-96876347D01*
X137059424Y-96831356D01*
X137027742Y-96812182D01*
X136984286Y-96795779D01*
X136984286Y-96857966D01*
X136988128Y-96900283D01*
X137003177Y-96935969D01*
X137034720Y-96976943D01*
X137039408Y-96982267D01*
X137074494Y-97018720D01*
X137104653Y-97038283D01*
X137142385Y-97047283D01*
X137173665Y-97050230D01*
X137229615Y-97050965D01*
X137269445Y-97041660D01*
X137294292Y-97027846D01*
X137333344Y-96997467D01*
X137360375Y-96964613D01*
X137377483Y-96923294D01*
X137386762Y-96867521D01*
X137390307Y-96791305D01*
X137390590Y-96752622D01*
X137389628Y-96706247D01*
X137301993Y-96706247D01*
X137300977Y-96731126D01*
X137298444Y-96735200D01*
X137281726Y-96729665D01*
X137245751Y-96715017D01*
X137197669Y-96694190D01*
X137187614Y-96689714D01*
X137126848Y-96658814D01*
X137093368Y-96631657D01*
X137086010Y-96606220D01*
X137103609Y-96580481D01*
X137118144Y-96569109D01*
X137170590Y-96546364D01*
X137219678Y-96550122D01*
X137260773Y-96577884D01*
X137289242Y-96627152D01*
X137298369Y-96666257D01*
X137301993Y-96706247D01*
X137389628Y-96706247D01*
X137388715Y-96662249D01*
X137381804Y-96595384D01*
X137368116Y-96546695D01*
X137345904Y-96510849D01*
X137313426Y-96482513D01*
X137299267Y-96473355D01*
X137234947Y-96449507D01*
X137164527Y-96448006D01*
X137096405Y-96466966D01*
G36*
X137597400Y-96458752D02*
G01*
X137580052Y-96466334D01*
X137538644Y-96499128D01*
X137503235Y-96546547D01*
X137481336Y-96597151D01*
X137477771Y-96622098D01*
X137489721Y-96656927D01*
X137515933Y-96675357D01*
X137544036Y-96686516D01*
X137556905Y-96688572D01*
X137563171Y-96673649D01*
X137575544Y-96641175D01*
X137580972Y-96626502D01*
X137611410Y-96575744D01*
X137655480Y-96550427D01*
X137711990Y-96551206D01*
X137716175Y-96552203D01*
X137746345Y-96566507D01*
X137768524Y-96594393D01*
X137783673Y-96639287D01*
X137792750Y-96704615D01*
X137796714Y-96793804D01*
X137797086Y-96841261D01*
X137797270Y-96916071D01*
X137798478Y-96967069D01*
X137801691Y-96999471D01*
X137807891Y-97018495D01*
X137818060Y-97029356D01*
X137833181Y-97037272D01*
X137834054Y-97037670D01*
X137863172Y-97049981D01*
X137877597Y-97054514D01*
X137879814Y-97040809D01*
X137881711Y-97002925D01*
X137883153Y-96945715D01*
X137884002Y-96874027D01*
X137884171Y-96821565D01*
X137883308Y-96720047D01*
X137879930Y-96643032D01*
X137872858Y-96586023D01*
X137860912Y-96544526D01*
X137842910Y-96514043D01*
X137817673Y-96490080D01*
X137792753Y-96473355D01*
X137732829Y-96451097D01*
X137663089Y-96446076D01*
X137597400Y-96458752D01*
G37*
X137597400Y-96458752D02*
X137580052Y-96466334D01*
X137538644Y-96499128D01*
X137503235Y-96546547D01*
X137481336Y-96597151D01*
X137477771Y-96622098D01*
X137489721Y-96656927D01*
X137515933Y-96675357D01*
X137544036Y-96686516D01*
X137556905Y-96688572D01*
X137563171Y-96673649D01*
X137575544Y-96641175D01*
X137580972Y-96626502D01*
X137611410Y-96575744D01*
X137655480Y-96550427D01*
X137711990Y-96551206D01*
X137716175Y-96552203D01*
X137746345Y-96566507D01*
X137768524Y-96594393D01*
X137783673Y-96639287D01*
X137792750Y-96704615D01*
X137796714Y-96793804D01*
X137797086Y-96841261D01*
X137797270Y-96916071D01*
X137798478Y-96967069D01*
X137801691Y-96999471D01*
X137807891Y-97018495D01*
X137818060Y-97029356D01*
X137833181Y-97037272D01*
X137834054Y-97037670D01*
X137863172Y-97049981D01*
X137877597Y-97054514D01*
X137879814Y-97040809D01*
X137881711Y-97002925D01*
X137883153Y-96945715D01*
X137884002Y-96874027D01*
X137884171Y-96821565D01*
X137883308Y-96720047D01*
X137879930Y-96643032D01*
X137872858Y-96586023D01*
X137860912Y-96544526D01*
X137842910Y-96514043D01*
X137817673Y-96490080D01*
X137792753Y-96473355D01*
X137732829Y-96451097D01*
X137663089Y-96446076D01*
X137597400Y-96458752D01*
G36*
X138105124Y-96456335D02*
G01*
X138063333Y-96475344D01*
X138030531Y-96498378D01*
X138006497Y-96524133D01*
X137989903Y-96557358D01*
X137979423Y-96602800D01*
X137973729Y-96665207D01*
X137971493Y-96749327D01*
X137971257Y-96804721D01*
X137971257Y-97020826D01*
X138008226Y-97037670D01*
X138037344Y-97049981D01*
X138051769Y-97054514D01*
X138054528Y-97041025D01*
X138056718Y-97004653D01*
X138058058Y-96951542D01*
X138058343Y-96909372D01*
X138059566Y-96848447D01*
X138062864Y-96800115D01*
X138067679Y-96770518D01*
X138071504Y-96764229D01*
X138097217Y-96770652D01*
X138137582Y-96787125D01*
X138184321Y-96809458D01*
X138229155Y-96833457D01*
X138263807Y-96854930D01*
X138279998Y-96869685D01*
X138280062Y-96869845D01*
X138278670Y-96897152D01*
X138266182Y-96923219D01*
X138244257Y-96944392D01*
X138212257Y-96951474D01*
X138184908Y-96950649D01*
X138146174Y-96950042D01*
X138125842Y-96959116D01*
X138113631Y-96983092D01*
X138112091Y-96987613D01*
X138106797Y-97021806D01*
X138120953Y-97042568D01*
X138157852Y-97052462D01*
X138197711Y-97054292D01*
X138269438Y-97040727D01*
X138306568Y-97021355D01*
X138352424Y-96975845D01*
X138376744Y-96919983D01*
X138378927Y-96860957D01*
X138358371Y-96805953D01*
X138327451Y-96771486D01*
X138296580Y-96752189D01*
X138248058Y-96727759D01*
X138191515Y-96702985D01*
X138182090Y-96699199D01*
X138119981Y-96671791D01*
X138084178Y-96647634D01*
X138072663Y-96623619D01*
X138083420Y-96596635D01*
X138101886Y-96575543D01*
X138145531Y-96549572D01*
X138193554Y-96547624D01*
X138237594Y-96567637D01*
X138269291Y-96607551D01*
X138273451Y-96617848D01*
X138297673Y-96655724D01*
X138333035Y-96683842D01*
X138377657Y-96706917D01*
X138377657Y-96641485D01*
X138375031Y-96601506D01*
X138363770Y-96569997D01*
X138338801Y-96536378D01*
X138314831Y-96510484D01*
X138277559Y-96473817D01*
X138248599Y-96454121D01*
X138217495Y-96446220D01*
X138182287Y-96444914D01*
X138105124Y-96456335D01*
G37*
X138105124Y-96456335D02*
X138063333Y-96475344D01*
X138030531Y-96498378D01*
X138006497Y-96524133D01*
X137989903Y-96557358D01*
X137979423Y-96602800D01*
X137973729Y-96665207D01*
X137971493Y-96749327D01*
X137971257Y-96804721D01*
X137971257Y-97020826D01*
X138008226Y-97037670D01*
X138037344Y-97049981D01*
X138051769Y-97054514D01*
X138054528Y-97041025D01*
X138056718Y-97004653D01*
X138058058Y-96951542D01*
X138058343Y-96909372D01*
X138059566Y-96848447D01*
X138062864Y-96800115D01*
X138067679Y-96770518D01*
X138071504Y-96764229D01*
X138097217Y-96770652D01*
X138137582Y-96787125D01*
X138184321Y-96809458D01*
X138229155Y-96833457D01*
X138263807Y-96854930D01*
X138279998Y-96869685D01*
X138280062Y-96869845D01*
X138278670Y-96897152D01*
X138266182Y-96923219D01*
X138244257Y-96944392D01*
X138212257Y-96951474D01*
X138184908Y-96950649D01*
X138146174Y-96950042D01*
X138125842Y-96959116D01*
X138113631Y-96983092D01*
X138112091Y-96987613D01*
X138106797Y-97021806D01*
X138120953Y-97042568D01*
X138157852Y-97052462D01*
X138197711Y-97054292D01*
X138269438Y-97040727D01*
X138306568Y-97021355D01*
X138352424Y-96975845D01*
X138376744Y-96919983D01*
X138378927Y-96860957D01*
X138358371Y-96805953D01*
X138327451Y-96771486D01*
X138296580Y-96752189D01*
X138248058Y-96727759D01*
X138191515Y-96702985D01*
X138182090Y-96699199D01*
X138119981Y-96671791D01*
X138084178Y-96647634D01*
X138072663Y-96623619D01*
X138083420Y-96596635D01*
X138101886Y-96575543D01*
X138145531Y-96549572D01*
X138193554Y-96547624D01*
X138237594Y-96567637D01*
X138269291Y-96607551D01*
X138273451Y-96617848D01*
X138297673Y-96655724D01*
X138333035Y-96683842D01*
X138377657Y-96706917D01*
X138377657Y-96641485D01*
X138375031Y-96601506D01*
X138363770Y-96569997D01*
X138338801Y-96536378D01*
X138314831Y-96510484D01*
X138277559Y-96473817D01*
X138248599Y-96454121D01*
X138217495Y-96446220D01*
X138182287Y-96444914D01*
X138105124Y-96456335D01*
G36*
X138470167Y-96458663D02*
G01*
X138467952Y-96496850D01*
X138466216Y-96554886D01*
X138465101Y-96628180D01*
X138464743Y-96705055D01*
X138464743Y-96965196D01*
X138510674Y-97011127D01*
X138542325Y-97039429D01*
X138570110Y-97050893D01*
X138608085Y-97050168D01*
X138623160Y-97048321D01*
X138670274Y-97042948D01*
X138709244Y-97039869D01*
X138718743Y-97039585D01*
X138750767Y-97041445D01*
X138796568Y-97046114D01*
X138814326Y-97048321D01*
X138857943Y-97051735D01*
X138887255Y-97044320D01*
X138916320Y-97021427D01*
X138926812Y-97011127D01*
X138972743Y-96965196D01*
X138972743Y-96478602D01*
X138935774Y-96461758D01*
X138903941Y-96449282D01*
X138885317Y-96444914D01*
X138880542Y-96458718D01*
X138876079Y-96497286D01*
X138872225Y-96556356D01*
X138869278Y-96631663D01*
X138867857Y-96695286D01*
X138863886Y-96945657D01*
X138829241Y-96950556D01*
X138797732Y-96947131D01*
X138782292Y-96936041D01*
X138777977Y-96915308D01*
X138774292Y-96871145D01*
X138771531Y-96809146D01*
X138769988Y-96734909D01*
X138769765Y-96696706D01*
X138769543Y-96476783D01*
X138723834Y-96460849D01*
X138691482Y-96450015D01*
X138673885Y-96444962D01*
X138673377Y-96444914D01*
X138671612Y-96458648D01*
X138669671Y-96496730D01*
X138667718Y-96554482D01*
X138665916Y-96627227D01*
X138664657Y-96695286D01*
X138660686Y-96945657D01*
X138573600Y-96945657D01*
X138569604Y-96717240D01*
X138565608Y-96488822D01*
X138523153Y-96466868D01*
X138491808Y-96451793D01*
X138473256Y-96444951D01*
X138472721Y-96444914D01*
X138470167Y-96458663D01*
G37*
X138470167Y-96458663D02*
X138467952Y-96496850D01*
X138466216Y-96554886D01*
X138465101Y-96628180D01*
X138464743Y-96705055D01*
X138464743Y-96965196D01*
X138510674Y-97011127D01*
X138542325Y-97039429D01*
X138570110Y-97050893D01*
X138608085Y-97050168D01*
X138623160Y-97048321D01*
X138670274Y-97042948D01*
X138709244Y-97039869D01*
X138718743Y-97039585D01*
X138750767Y-97041445D01*
X138796568Y-97046114D01*
X138814326Y-97048321D01*
X138857943Y-97051735D01*
X138887255Y-97044320D01*
X138916320Y-97021427D01*
X138926812Y-97011127D01*
X138972743Y-96965196D01*
X138972743Y-96478602D01*
X138935774Y-96461758D01*
X138903941Y-96449282D01*
X138885317Y-96444914D01*
X138880542Y-96458718D01*
X138876079Y-96497286D01*
X138872225Y-96556356D01*
X138869278Y-96631663D01*
X138867857Y-96695286D01*
X138863886Y-96945657D01*
X138829241Y-96950556D01*
X138797732Y-96947131D01*
X138782292Y-96936041D01*
X138777977Y-96915308D01*
X138774292Y-96871145D01*
X138771531Y-96809146D01*
X138769988Y-96734909D01*
X138769765Y-96696706D01*
X138769543Y-96476783D01*
X138723834Y-96460849D01*
X138691482Y-96450015D01*
X138673885Y-96444962D01*
X138673377Y-96444914D01*
X138671612Y-96458648D01*
X138669671Y-96496730D01*
X138667718Y-96554482D01*
X138665916Y-96627227D01*
X138664657Y-96695286D01*
X138660686Y-96945657D01*
X138573600Y-96945657D01*
X138569604Y-96717240D01*
X138565608Y-96488822D01*
X138523153Y-96466868D01*
X138491808Y-96451793D01*
X138473256Y-96444951D01*
X138472721Y-96444914D01*
X138470167Y-96458663D01*
G36*
X139059883Y-96565358D02*
G01*
X139060067Y-96673837D01*
X139060781Y-96757287D01*
X139062325Y-96819704D01*
X139064999Y-96865085D01*
X139069106Y-96897429D01*
X139074945Y-96920733D01*
X139082818Y-96938995D01*
X139088779Y-96949418D01*
X139138145Y-97005945D01*
X139200736Y-97041377D01*
X139269987Y-97054090D01*
X139339332Y-97042463D01*
X139380625Y-97021568D01*
X139423975Y-96985422D01*
X139453519Y-96941276D01*
X139471345Y-96883462D01*
X139479537Y-96806313D01*
X139480698Y-96749714D01*
X139480542Y-96745647D01*
X139379143Y-96745647D01*
X139378524Y-96810550D01*
X139375686Y-96853514D01*
X139369160Y-96881622D01*
X139357477Y-96901953D01*
X139343517Y-96917288D01*
X139296635Y-96946890D01*
X139246299Y-96949419D01*
X139198724Y-96924705D01*
X139195021Y-96921356D01*
X139179217Y-96903935D01*
X139169307Y-96883209D01*
X139163942Y-96852362D01*
X139161772Y-96804577D01*
X139161429Y-96751748D01*
X139162173Y-96685381D01*
X139165252Y-96641106D01*
X139171939Y-96612009D01*
X139183504Y-96591173D01*
X139192987Y-96580107D01*
X139237040Y-96552198D01*
X139287776Y-96548843D01*
X139336204Y-96570159D01*
X139345550Y-96578073D01*
X139361460Y-96595647D01*
X139371390Y-96616587D01*
X139376722Y-96647782D01*
X139378837Y-96696122D01*
X139379143Y-96745647D01*
X139480542Y-96745647D01*
X139477190Y-96658568D01*
X139465274Y-96590086D01*
X139442865Y-96538600D01*
X139407876Y-96498443D01*
X139380625Y-96477861D01*
X139331093Y-96455625D01*
X139273684Y-96445304D01*
X139220318Y-96448067D01*
X139190457Y-96459212D01*
X139178739Y-96462383D01*
X139170963Y-96450557D01*
X139165535Y-96418866D01*
X139161429Y-96370593D01*
X139156933Y-96316829D01*
X139150687Y-96284482D01*
X139139324Y-96265985D01*
X139119472Y-96253770D01*
X139107000Y-96248362D01*
X139059829Y-96228601D01*
X139059883Y-96565358D01*
G37*
X139059883Y-96565358D02*
X139060067Y-96673837D01*
X139060781Y-96757287D01*
X139062325Y-96819704D01*
X139064999Y-96865085D01*
X139069106Y-96897429D01*
X139074945Y-96920733D01*
X139082818Y-96938995D01*
X139088779Y-96949418D01*
X139138145Y-97005945D01*
X139200736Y-97041377D01*
X139269987Y-97054090D01*
X139339332Y-97042463D01*
X139380625Y-97021568D01*
X139423975Y-96985422D01*
X139453519Y-96941276D01*
X139471345Y-96883462D01*
X139479537Y-96806313D01*
X139480698Y-96749714D01*
X139480542Y-96745647D01*
X139379143Y-96745647D01*
X139378524Y-96810550D01*
X139375686Y-96853514D01*
X139369160Y-96881622D01*
X139357477Y-96901953D01*
X139343517Y-96917288D01*
X139296635Y-96946890D01*
X139246299Y-96949419D01*
X139198724Y-96924705D01*
X139195021Y-96921356D01*
X139179217Y-96903935D01*
X139169307Y-96883209D01*
X139163942Y-96852362D01*
X139161772Y-96804577D01*
X139161429Y-96751748D01*
X139162173Y-96685381D01*
X139165252Y-96641106D01*
X139171939Y-96612009D01*
X139183504Y-96591173D01*
X139192987Y-96580107D01*
X139237040Y-96552198D01*
X139287776Y-96548843D01*
X139336204Y-96570159D01*
X139345550Y-96578073D01*
X139361460Y-96595647D01*
X139371390Y-96616587D01*
X139376722Y-96647782D01*
X139378837Y-96696122D01*
X139379143Y-96745647D01*
X139480542Y-96745647D01*
X139477190Y-96658568D01*
X139465274Y-96590086D01*
X139442865Y-96538600D01*
X139407876Y-96498443D01*
X139380625Y-96477861D01*
X139331093Y-96455625D01*
X139273684Y-96445304D01*
X139220318Y-96448067D01*
X139190457Y-96459212D01*
X139178739Y-96462383D01*
X139170963Y-96450557D01*
X139165535Y-96418866D01*
X139161429Y-96370593D01*
X139156933Y-96316829D01*
X139150687Y-96284482D01*
X139139324Y-96265985D01*
X139119472Y-96253770D01*
X139107000Y-96248362D01*
X139059829Y-96228601D01*
X139059883Y-96565358D01*
G36*
X139720074Y-96449755D02*
G01*
X139654142Y-96474084D01*
X139600727Y-96517117D01*
X139579836Y-96547409D01*
X139557061Y-96602994D01*
X139557534Y-96643186D01*
X139581438Y-96670217D01*
X139590283Y-96674813D01*
X139628470Y-96689144D01*
X139647972Y-96685472D01*
X139654578Y-96661407D01*
X139654914Y-96648114D01*
X139667008Y-96599210D01*
X139698529Y-96564999D01*
X139742341Y-96548476D01*
X139791305Y-96552634D01*
X139831106Y-96574227D01*
X139844550Y-96586544D01*
X139854079Y-96601487D01*
X139860515Y-96624075D01*
X139864683Y-96659328D01*
X139867403Y-96712266D01*
X139869498Y-96787907D01*
X139870040Y-96811857D01*
X139872019Y-96893790D01*
X139874269Y-96951455D01*
X139877643Y-96989608D01*
X139882994Y-97013004D01*
X139891176Y-97026398D01*
X139903041Y-97034545D01*
X139910638Y-97038144D01*
X139942898Y-97050452D01*
X139961889Y-97054514D01*
X139968164Y-97040948D01*
X139971994Y-96999934D01*
X139973400Y-96930999D01*
X139972402Y-96833669D01*
X139972092Y-96818657D01*
X139969899Y-96729859D01*
X139967307Y-96665019D01*
X139963618Y-96619067D01*
X139958136Y-96586935D01*
X139950165Y-96563553D01*
X139939007Y-96543852D01*
X139933170Y-96535410D01*
X139899704Y-96498057D01*
X139862273Y-96469003D01*
X139857691Y-96466467D01*
X139790574Y-96446443D01*
X139720074Y-96449755D01*
G37*
X139720074Y-96449755D02*
X139654142Y-96474084D01*
X139600727Y-96517117D01*
X139579836Y-96547409D01*
X139557061Y-96602994D01*
X139557534Y-96643186D01*
X139581438Y-96670217D01*
X139590283Y-96674813D01*
X139628470Y-96689144D01*
X139647972Y-96685472D01*
X139654578Y-96661407D01*
X139654914Y-96648114D01*
X139667008Y-96599210D01*
X139698529Y-96564999D01*
X139742341Y-96548476D01*
X139791305Y-96552634D01*
X139831106Y-96574227D01*
X139844550Y-96586544D01*
X139854079Y-96601487D01*
X139860515Y-96624075D01*
X139864683Y-96659328D01*
X139867403Y-96712266D01*
X139869498Y-96787907D01*
X139870040Y-96811857D01*
X139872019Y-96893790D01*
X139874269Y-96951455D01*
X139877643Y-96989608D01*
X139882994Y-97013004D01*
X139891176Y-97026398D01*
X139903041Y-97034545D01*
X139910638Y-97038144D01*
X139942898Y-97050452D01*
X139961889Y-97054514D01*
X139968164Y-97040948D01*
X139971994Y-96999934D01*
X139973400Y-96930999D01*
X139972402Y-96833669D01*
X139972092Y-96818657D01*
X139969899Y-96729859D01*
X139967307Y-96665019D01*
X139963618Y-96619067D01*
X139958136Y-96586935D01*
X139950165Y-96563553D01*
X139939007Y-96543852D01*
X139933170Y-96535410D01*
X139899704Y-96498057D01*
X139862273Y-96469003D01*
X139857691Y-96466467D01*
X139790574Y-96446443D01*
X139720074Y-96449755D01*
G36*
X140210256Y-96450968D02*
G01*
X140153384Y-96472087D01*
X140152733Y-96472493D01*
X140117560Y-96498380D01*
X140091593Y-96528633D01*
X140073330Y-96568058D01*
X140061268Y-96621462D01*
X140053904Y-96693651D01*
X140049736Y-96789432D01*
X140049371Y-96803078D01*
X140044124Y-97008842D01*
X140088284Y-97031678D01*
X140120237Y-97047110D01*
X140139530Y-97054423D01*
X140140422Y-97054514D01*
X140143761Y-97041022D01*
X140146413Y-97004626D01*
X140148044Y-96951452D01*
X140148400Y-96908393D01*
X140148408Y-96838641D01*
X140151597Y-96794837D01*
X140162712Y-96773944D01*
X140186499Y-96772925D01*
X140227704Y-96788741D01*
X140289914Y-96817815D01*
X140335659Y-96841963D01*
X140359187Y-96862913D01*
X140366104Y-96885747D01*
X140366114Y-96886877D01*
X140354701Y-96926212D01*
X140320908Y-96947462D01*
X140269191Y-96950539D01*
X140231939Y-96950006D01*
X140212297Y-96960735D01*
X140200048Y-96986505D01*
X140192998Y-97019337D01*
X140203158Y-97037966D01*
X140206983Y-97040632D01*
X140242999Y-97051340D01*
X140293434Y-97052856D01*
X140345374Y-97045759D01*
X140382178Y-97032788D01*
X140433062Y-96989585D01*
X140461986Y-96929446D01*
X140467714Y-96882462D01*
X140463343Y-96840082D01*
X140447525Y-96805488D01*
X140416203Y-96774763D01*
X140365322Y-96743990D01*
X140290824Y-96709252D01*
X140286286Y-96707288D01*
X140219179Y-96676287D01*
X140177768Y-96650862D01*
X140160019Y-96628014D01*
X140163893Y-96604745D01*
X140187357Y-96578056D01*
X140194373Y-96571914D01*
X140241370Y-96548100D01*
X140290067Y-96549103D01*
X140332478Y-96572451D01*
X140360616Y-96615675D01*
X140363231Y-96624160D01*
X140388692Y-96665308D01*
X140420999Y-96685128D01*
X140467714Y-96704770D01*
X140467714Y-96653950D01*
X140453504Y-96580082D01*
X140411325Y-96512327D01*
X140389376Y-96489661D01*
X140339483Y-96460569D01*
X140276033Y-96447400D01*
X140210256Y-96450968D01*
G37*
X140210256Y-96450968D02*
X140153384Y-96472087D01*
X140152733Y-96472493D01*
X140117560Y-96498380D01*
X140091593Y-96528633D01*
X140073330Y-96568058D01*
X140061268Y-96621462D01*
X140053904Y-96693651D01*
X140049736Y-96789432D01*
X140049371Y-96803078D01*
X140044124Y-97008842D01*
X140088284Y-97031678D01*
X140120237Y-97047110D01*
X140139530Y-97054423D01*
X140140422Y-97054514D01*
X140143761Y-97041022D01*
X140146413Y-97004626D01*
X140148044Y-96951452D01*
X140148400Y-96908393D01*
X140148408Y-96838641D01*
X140151597Y-96794837D01*
X140162712Y-96773944D01*
X140186499Y-96772925D01*
X140227704Y-96788741D01*
X140289914Y-96817815D01*
X140335659Y-96841963D01*
X140359187Y-96862913D01*
X140366104Y-96885747D01*
X140366114Y-96886877D01*
X140354701Y-96926212D01*
X140320908Y-96947462D01*
X140269191Y-96950539D01*
X140231939Y-96950006D01*
X140212297Y-96960735D01*
X140200048Y-96986505D01*
X140192998Y-97019337D01*
X140203158Y-97037966D01*
X140206983Y-97040632D01*
X140242999Y-97051340D01*
X140293434Y-97052856D01*
X140345374Y-97045759D01*
X140382178Y-97032788D01*
X140433062Y-96989585D01*
X140461986Y-96929446D01*
X140467714Y-96882462D01*
X140463343Y-96840082D01*
X140447525Y-96805488D01*
X140416203Y-96774763D01*
X140365322Y-96743990D01*
X140290824Y-96709252D01*
X140286286Y-96707288D01*
X140219179Y-96676287D01*
X140177768Y-96650862D01*
X140160019Y-96628014D01*
X140163893Y-96604745D01*
X140187357Y-96578056D01*
X140194373Y-96571914D01*
X140241370Y-96548100D01*
X140290067Y-96549103D01*
X140332478Y-96572451D01*
X140360616Y-96615675D01*
X140363231Y-96624160D01*
X140388692Y-96665308D01*
X140420999Y-96685128D01*
X140467714Y-96704770D01*
X140467714Y-96653950D01*
X140453504Y-96580082D01*
X140411325Y-96512327D01*
X140389376Y-96489661D01*
X140339483Y-96460569D01*
X140276033Y-96447400D01*
X140210256Y-96450968D01*
G36*
X140874114Y-96351289D02*
G01*
X140869861Y-96410613D01*
X140864975Y-96445572D01*
X140858205Y-96460820D01*
X140848298Y-96461015D01*
X140845086Y-96459195D01*
X140802356Y-96446015D01*
X140746773Y-96446785D01*
X140690263Y-96460333D01*
X140654918Y-96477861D01*
X140618679Y-96505861D01*
X140592187Y-96537549D01*
X140574001Y-96577813D01*
X140562678Y-96631543D01*
X140556778Y-96703626D01*
X140554857Y-96798951D01*
X140554823Y-96817237D01*
X140554800Y-97022646D01*
X140600509Y-97038580D01*
X140632973Y-97049420D01*
X140650785Y-97054468D01*
X140651309Y-97054514D01*
X140653063Y-97040828D01*
X140654556Y-97003076D01*
X140655674Y-96946224D01*
X140656303Y-96875234D01*
X140656400Y-96832073D01*
X140656602Y-96746973D01*
X140657642Y-96685981D01*
X140660169Y-96644177D01*
X140664836Y-96616642D01*
X140672293Y-96598456D01*
X140683189Y-96584698D01*
X140689993Y-96578073D01*
X140736728Y-96551375D01*
X140787728Y-96549375D01*
X140833999Y-96571955D01*
X140842556Y-96580107D01*
X140855107Y-96595436D01*
X140863812Y-96613618D01*
X140869369Y-96639909D01*
X140872474Y-96679562D01*
X140873824Y-96737832D01*
X140874114Y-96818173D01*
X140874114Y-97022646D01*
X140919823Y-97038580D01*
X140952287Y-97049420D01*
X140970099Y-97054468D01*
X140970623Y-97054514D01*
X140971963Y-97040623D01*
X140973172Y-97001439D01*
X140974199Y-96940700D01*
X140974998Y-96862141D01*
X140975519Y-96769498D01*
X140975714Y-96666509D01*
X140975714Y-96269342D01*
X140928543Y-96249444D01*
X140881371Y-96229547D01*
X140874114Y-96351289D01*
G37*
X140874114Y-96351289D02*
X140869861Y-96410613D01*
X140864975Y-96445572D01*
X140858205Y-96460820D01*
X140848298Y-96461015D01*
X140845086Y-96459195D01*
X140802356Y-96446015D01*
X140746773Y-96446785D01*
X140690263Y-96460333D01*
X140654918Y-96477861D01*
X140618679Y-96505861D01*
X140592187Y-96537549D01*
X140574001Y-96577813D01*
X140562678Y-96631543D01*
X140556778Y-96703626D01*
X140554857Y-96798951D01*
X140554823Y-96817237D01*
X140554800Y-97022646D01*
X140600509Y-97038580D01*
X140632973Y-97049420D01*
X140650785Y-97054468D01*
X140651309Y-97054514D01*
X140653063Y-97040828D01*
X140654556Y-97003076D01*
X140655674Y-96946224D01*
X140656303Y-96875234D01*
X140656400Y-96832073D01*
X140656602Y-96746973D01*
X140657642Y-96685981D01*
X140660169Y-96644177D01*
X140664836Y-96616642D01*
X140672293Y-96598456D01*
X140683189Y-96584698D01*
X140689993Y-96578073D01*
X140736728Y-96551375D01*
X140787728Y-96549375D01*
X140833999Y-96571955D01*
X140842556Y-96580107D01*
X140855107Y-96595436D01*
X140863812Y-96613618D01*
X140869369Y-96639909D01*
X140872474Y-96679562D01*
X140873824Y-96737832D01*
X140874114Y-96818173D01*
X140874114Y-97022646D01*
X140919823Y-97038580D01*
X140952287Y-97049420D01*
X140970099Y-97054468D01*
X140970623Y-97054514D01*
X140971963Y-97040623D01*
X140973172Y-97001439D01*
X140974199Y-96940700D01*
X140974998Y-96862141D01*
X140975519Y-96769498D01*
X140975714Y-96666509D01*
X140975714Y-96269342D01*
X140928543Y-96249444D01*
X140881371Y-96229547D01*
X140874114Y-96351289D01*
G36*
X142081697Y-96431239D02*
G01*
X142024473Y-96469735D01*
X141980251Y-96525335D01*
X141953833Y-96596086D01*
X141948490Y-96648162D01*
X141949097Y-96669893D01*
X141954178Y-96686531D01*
X141968145Y-96701437D01*
X141995411Y-96717973D01*
X142040388Y-96739498D01*
X142107489Y-96769374D01*
X142107829Y-96769524D01*
X142169593Y-96797813D01*
X142220241Y-96822933D01*
X142254596Y-96842179D01*
X142267482Y-96852848D01*
X142267486Y-96852934D01*
X142256128Y-96876166D01*
X142229569Y-96901774D01*
X142199077Y-96920221D01*
X142183630Y-96923886D01*
X142141485Y-96911212D01*
X142105192Y-96879471D01*
X142087483Y-96844572D01*
X142070448Y-96818845D01*
X142037078Y-96789546D01*
X141997851Y-96764235D01*
X141963244Y-96750471D01*
X141956007Y-96749714D01*
X141947861Y-96762160D01*
X141947370Y-96793972D01*
X141953357Y-96836866D01*
X141964643Y-96882558D01*
X141980050Y-96922761D01*
X141980829Y-96924322D01*
X142027196Y-96989062D01*
X142087289Y-97033097D01*
X142155535Y-97054711D01*
X142226362Y-97052185D01*
X142294196Y-97023804D01*
X142297212Y-97021808D01*
X142350573Y-96973448D01*
X142385660Y-96910352D01*
X142405078Y-96827387D01*
X142407684Y-96804078D01*
X142412299Y-96694055D01*
X142406767Y-96642748D01*
X142267486Y-96642748D01*
X142265676Y-96674753D01*
X142255778Y-96684093D01*
X142231102Y-96677105D01*
X142192205Y-96660587D01*
X142148725Y-96639881D01*
X142147644Y-96639333D01*
X142110791Y-96619949D01*
X142096000Y-96607013D01*
X142099647Y-96593451D01*
X142115005Y-96575632D01*
X142154077Y-96549845D01*
X142196154Y-96547950D01*
X142233897Y-96566717D01*
X142259966Y-96602915D01*
X142267486Y-96642748D01*
X142406767Y-96642748D01*
X142402806Y-96606027D01*
X142378450Y-96536212D01*
X142344544Y-96487302D01*
X142283347Y-96437878D01*
X142215937Y-96413359D01*
X142147120Y-96411797D01*
X142081697Y-96431239D01*
G37*
X142081697Y-96431239D02*
X142024473Y-96469735D01*
X141980251Y-96525335D01*
X141953833Y-96596086D01*
X141948490Y-96648162D01*
X141949097Y-96669893D01*
X141954178Y-96686531D01*
X141968145Y-96701437D01*
X141995411Y-96717973D01*
X142040388Y-96739498D01*
X142107489Y-96769374D01*
X142107829Y-96769524D01*
X142169593Y-96797813D01*
X142220241Y-96822933D01*
X142254596Y-96842179D01*
X142267482Y-96852848D01*
X142267486Y-96852934D01*
X142256128Y-96876166D01*
X142229569Y-96901774D01*
X142199077Y-96920221D01*
X142183630Y-96923886D01*
X142141485Y-96911212D01*
X142105192Y-96879471D01*
X142087483Y-96844572D01*
X142070448Y-96818845D01*
X142037078Y-96789546D01*
X141997851Y-96764235D01*
X141963244Y-96750471D01*
X141956007Y-96749714D01*
X141947861Y-96762160D01*
X141947370Y-96793972D01*
X141953357Y-96836866D01*
X141964643Y-96882558D01*
X141980050Y-96922761D01*
X141980829Y-96924322D01*
X142027196Y-96989062D01*
X142087289Y-97033097D01*
X142155535Y-97054711D01*
X142226362Y-97052185D01*
X142294196Y-97023804D01*
X142297212Y-97021808D01*
X142350573Y-96973448D01*
X142385660Y-96910352D01*
X142405078Y-96827387D01*
X142407684Y-96804078D01*
X142412299Y-96694055D01*
X142406767Y-96642748D01*
X142267486Y-96642748D01*
X142265676Y-96674753D01*
X142255778Y-96684093D01*
X142231102Y-96677105D01*
X142192205Y-96660587D01*
X142148725Y-96639881D01*
X142147644Y-96639333D01*
X142110791Y-96619949D01*
X142096000Y-96607013D01*
X142099647Y-96593451D01*
X142115005Y-96575632D01*
X142154077Y-96549845D01*
X142196154Y-96547950D01*
X142233897Y-96566717D01*
X142259966Y-96602915D01*
X142267486Y-96642748D01*
X142406767Y-96642748D01*
X142402806Y-96606027D01*
X142378450Y-96536212D01*
X142344544Y-96487302D01*
X142283347Y-96437878D01*
X142215937Y-96413359D01*
X142147120Y-96411797D01*
X142081697Y-96431239D01*
G36*
X143208885Y-96421962D02*
G01*
X143140855Y-96457733D01*
X143090649Y-96515301D01*
X143072815Y-96552312D01*
X143058937Y-96607882D01*
X143051833Y-96678096D01*
X143051160Y-96754727D01*
X143056573Y-96829552D01*
X143067730Y-96894342D01*
X143084286Y-96940873D01*
X143089374Y-96948887D01*
X143149645Y-97008707D01*
X143221231Y-97044535D01*
X143298908Y-97055020D01*
X143377452Y-97038810D01*
X143399311Y-97029092D01*
X143441878Y-96999143D01*
X143479237Y-96959433D01*
X143482768Y-96954397D01*
X143497119Y-96930124D01*
X143506606Y-96904178D01*
X143512210Y-96870022D01*
X143514914Y-96821119D01*
X143515701Y-96750935D01*
X143515714Y-96735200D01*
X143515678Y-96730192D01*
X143370571Y-96730192D01*
X143369727Y-96796430D01*
X143366404Y-96840386D01*
X143359417Y-96868779D01*
X143347584Y-96888325D01*
X143341543Y-96894857D01*
X143306814Y-96919680D01*
X143273097Y-96918548D01*
X143239005Y-96897016D01*
X143218671Y-96874029D01*
X143206629Y-96840478D01*
X143199866Y-96787569D01*
X143199402Y-96781399D01*
X143198248Y-96685513D01*
X143210312Y-96614299D01*
X143235430Y-96568194D01*
X143273440Y-96547635D01*
X143287008Y-96546514D01*
X143322636Y-96552152D01*
X143347006Y-96571686D01*
X143361907Y-96609042D01*
X143369125Y-96668150D01*
X143370571Y-96730192D01*
X143515678Y-96730192D01*
X143515174Y-96660413D01*
X143512904Y-96608159D01*
X143507932Y-96571949D01*
X143499287Y-96545299D01*
X143485995Y-96521722D01*
X143483057Y-96517338D01*
X143433687Y-96458249D01*
X143379891Y-96423947D01*
X143314398Y-96410331D01*
X143292158Y-96409665D01*
X143208885Y-96421962D01*
G37*
X143208885Y-96421962D02*
X143140855Y-96457733D01*
X143090649Y-96515301D01*
X143072815Y-96552312D01*
X143058937Y-96607882D01*
X143051833Y-96678096D01*
X143051160Y-96754727D01*
X143056573Y-96829552D01*
X143067730Y-96894342D01*
X143084286Y-96940873D01*
X143089374Y-96948887D01*
X143149645Y-97008707D01*
X143221231Y-97044535D01*
X143298908Y-97055020D01*
X143377452Y-97038810D01*
X143399311Y-97029092D01*
X143441878Y-96999143D01*
X143479237Y-96959433D01*
X143482768Y-96954397D01*
X143497119Y-96930124D01*
X143506606Y-96904178D01*
X143512210Y-96870022D01*
X143514914Y-96821119D01*
X143515701Y-96750935D01*
X143515714Y-96735200D01*
X143515678Y-96730192D01*
X143370571Y-96730192D01*
X143369727Y-96796430D01*
X143366404Y-96840386D01*
X143359417Y-96868779D01*
X143347584Y-96888325D01*
X143341543Y-96894857D01*
X143306814Y-96919680D01*
X143273097Y-96918548D01*
X143239005Y-96897016D01*
X143218671Y-96874029D01*
X143206629Y-96840478D01*
X143199866Y-96787569D01*
X143199402Y-96781399D01*
X143198248Y-96685513D01*
X143210312Y-96614299D01*
X143235430Y-96568194D01*
X143273440Y-96547635D01*
X143287008Y-96546514D01*
X143322636Y-96552152D01*
X143347006Y-96571686D01*
X143361907Y-96609042D01*
X143369125Y-96668150D01*
X143370571Y-96730192D01*
X143515678Y-96730192D01*
X143515174Y-96660413D01*
X143512904Y-96608159D01*
X143507932Y-96571949D01*
X143499287Y-96545299D01*
X143485995Y-96521722D01*
X143483057Y-96517338D01*
X143433687Y-96458249D01*
X143379891Y-96423947D01*
X143314398Y-96410331D01*
X143292158Y-96409665D01*
X143208885Y-96421962D01*
G36*
X141533907Y-96427780D02*
G01*
X141487328Y-96454723D01*
X141454943Y-96481466D01*
X141431258Y-96509484D01*
X141414941Y-96543748D01*
X141404661Y-96589227D01*
X141399086Y-96650892D01*
X141396884Y-96733711D01*
X141396629Y-96793246D01*
X141396629Y-97012391D01*
X141458314Y-97040044D01*
X141520000Y-97067697D01*
X141527257Y-96827670D01*
X141530256Y-96738028D01*
X141533402Y-96672962D01*
X141537299Y-96628026D01*
X141542553Y-96598770D01*
X141549769Y-96580748D01*
X141559550Y-96569511D01*
X141562688Y-96567079D01*
X141610239Y-96548083D01*
X141658303Y-96555600D01*
X141686914Y-96575543D01*
X141698553Y-96589675D01*
X141706609Y-96608220D01*
X141711729Y-96636334D01*
X141714559Y-96679173D01*
X141715744Y-96741895D01*
X141715943Y-96807261D01*
X141715982Y-96889268D01*
X141717386Y-96947316D01*
X141722086Y-96986465D01*
X141732013Y-97011780D01*
X141749097Y-97028323D01*
X141775268Y-97041156D01*
X141810225Y-97054491D01*
X141848404Y-97069007D01*
X141843859Y-96811389D01*
X141842029Y-96718519D01*
X141839888Y-96649889D01*
X141836819Y-96600711D01*
X141832206Y-96566198D01*
X141825432Y-96541562D01*
X141815881Y-96522016D01*
X141804366Y-96504770D01*
X141748810Y-96449680D01*
X141681020Y-96417822D01*
X141607287Y-96410191D01*
X141533907Y-96427780D01*
G37*
X141533907Y-96427780D02*
X141487328Y-96454723D01*
X141454943Y-96481466D01*
X141431258Y-96509484D01*
X141414941Y-96543748D01*
X141404661Y-96589227D01*
X141399086Y-96650892D01*
X141396884Y-96733711D01*
X141396629Y-96793246D01*
X141396629Y-97012391D01*
X141458314Y-97040044D01*
X141520000Y-97067697D01*
X141527257Y-96827670D01*
X141530256Y-96738028D01*
X141533402Y-96672962D01*
X141537299Y-96628026D01*
X141542553Y-96598770D01*
X141549769Y-96580748D01*
X141559550Y-96569511D01*
X141562688Y-96567079D01*
X141610239Y-96548083D01*
X141658303Y-96555600D01*
X141686914Y-96575543D01*
X141698553Y-96589675D01*
X141706609Y-96608220D01*
X141711729Y-96636334D01*
X141714559Y-96679173D01*
X141715744Y-96741895D01*
X141715943Y-96807261D01*
X141715982Y-96889268D01*
X141717386Y-96947316D01*
X141722086Y-96986465D01*
X141732013Y-97011780D01*
X141749097Y-97028323D01*
X141775268Y-97041156D01*
X141810225Y-97054491D01*
X141848404Y-97069007D01*
X141843859Y-96811389D01*
X141842029Y-96718519D01*
X141839888Y-96649889D01*
X141836819Y-96600711D01*
X141832206Y-96566198D01*
X141825432Y-96541562D01*
X141815881Y-96522016D01*
X141804366Y-96504770D01*
X141748810Y-96449680D01*
X141681020Y-96417822D01*
X141607287Y-96410191D01*
X141533907Y-96427780D01*
G36*
X142650256Y-96419918D02*
G01*
X142594799Y-96447568D01*
X142545852Y-96498480D01*
X142532371Y-96517338D01*
X142517686Y-96542015D01*
X142508158Y-96568816D01*
X142502707Y-96604587D01*
X142500253Y-96656169D01*
X142499714Y-96724267D01*
X142502148Y-96817588D01*
X142510606Y-96887657D01*
X142526826Y-96939931D01*
X142552546Y-96979869D01*
X142589503Y-97012929D01*
X142592218Y-97014886D01*
X142628640Y-97034908D01*
X142672498Y-97044815D01*
X142728276Y-97047257D01*
X142818952Y-97047257D01*
X142818990Y-97135283D01*
X142819834Y-97184308D01*
X142824976Y-97213065D01*
X142838413Y-97230311D01*
X142864142Y-97244808D01*
X142870321Y-97247769D01*
X142899236Y-97261648D01*
X142921624Y-97270414D01*
X142938271Y-97271171D01*
X142949964Y-97261023D01*
X142957490Y-97237073D01*
X142961634Y-97196426D01*
X142963185Y-97136186D01*
X142962929Y-97053455D01*
X142961651Y-96945339D01*
X142961252Y-96913000D01*
X142959815Y-96801524D01*
X142958528Y-96728603D01*
X142819029Y-96728603D01*
X142818245Y-96790499D01*
X142814760Y-96830997D01*
X142806876Y-96857708D01*
X142792895Y-96878244D01*
X142783403Y-96888260D01*
X142744596Y-96917567D01*
X142710237Y-96919952D01*
X142674784Y-96895750D01*
X142673886Y-96894857D01*
X142659461Y-96876153D01*
X142650687Y-96850732D01*
X142646261Y-96811584D01*
X142644882Y-96751697D01*
X142644857Y-96738430D01*
X142648188Y-96655901D01*
X142659031Y-96598691D01*
X142678660Y-96563766D01*
X142708350Y-96548094D01*
X142725509Y-96546514D01*
X142766234Y-96553926D01*
X142794168Y-96578330D01*
X142810983Y-96622980D01*
X142818350Y-96691130D01*
X142819029Y-96728603D01*
X142958528Y-96728603D01*
X142958292Y-96715245D01*
X142956323Y-96650333D01*
X142953550Y-96602958D01*
X142949612Y-96569290D01*
X142944151Y-96545498D01*
X142936808Y-96527753D01*
X142927223Y-96512224D01*
X142923113Y-96506381D01*
X142868595Y-96451185D01*
X142799664Y-96419890D01*
X142719928Y-96411165D01*
X142650256Y-96419918D01*
G37*
X142650256Y-96419918D02*
X142594799Y-96447568D01*
X142545852Y-96498480D01*
X142532371Y-96517338D01*
X142517686Y-96542015D01*
X142508158Y-96568816D01*
X142502707Y-96604587D01*
X142500253Y-96656169D01*
X142499714Y-96724267D01*
X142502148Y-96817588D01*
X142510606Y-96887657D01*
X142526826Y-96939931D01*
X142552546Y-96979869D01*
X142589503Y-97012929D01*
X142592218Y-97014886D01*
X142628640Y-97034908D01*
X142672498Y-97044815D01*
X142728276Y-97047257D01*
X142818952Y-97047257D01*
X142818990Y-97135283D01*
X142819834Y-97184308D01*
X142824976Y-97213065D01*
X142838413Y-97230311D01*
X142864142Y-97244808D01*
X142870321Y-97247769D01*
X142899236Y-97261648D01*
X142921624Y-97270414D01*
X142938271Y-97271171D01*
X142949964Y-97261023D01*
X142957490Y-97237073D01*
X142961634Y-97196426D01*
X142963185Y-97136186D01*
X142962929Y-97053455D01*
X142961651Y-96945339D01*
X142961252Y-96913000D01*
X142959815Y-96801524D01*
X142958528Y-96728603D01*
X142819029Y-96728603D01*
X142818245Y-96790499D01*
X142814760Y-96830997D01*
X142806876Y-96857708D01*
X142792895Y-96878244D01*
X142783403Y-96888260D01*
X142744596Y-96917567D01*
X142710237Y-96919952D01*
X142674784Y-96895750D01*
X142673886Y-96894857D01*
X142659461Y-96876153D01*
X142650687Y-96850732D01*
X142646261Y-96811584D01*
X142644882Y-96751697D01*
X142644857Y-96738430D01*
X142648188Y-96655901D01*
X142659031Y-96598691D01*
X142678660Y-96563766D01*
X142708350Y-96548094D01*
X142725509Y-96546514D01*
X142766234Y-96553926D01*
X142794168Y-96578330D01*
X142810983Y-96622980D01*
X142818350Y-96691130D01*
X142819029Y-96728603D01*
X142958528Y-96728603D01*
X142958292Y-96715245D01*
X142956323Y-96650333D01*
X142953550Y-96602958D01*
X142949612Y-96569290D01*
X142944151Y-96545498D01*
X142936808Y-96527753D01*
X142927223Y-96512224D01*
X142923113Y-96506381D01*
X142868595Y-96451185D01*
X142799664Y-96419890D01*
X142719928Y-96411165D01*
X142650256Y-96419918D01*
M02*
